{
  "accessors": [
    {
      "bufferView": 2,
      "componentType": 5126,
      "count": 1869,
      "max": [
        1.0368070602416992,
        0.8699231147766113,
        10.076041221618652
      ],
      "min": [
        -1.0,
        -0.8369066119194031,
        -1.0122041702270508
      ],
      "type": "VEC3"
    },
    {
      "bufferView": 2,
      "byteOffset": 22428,
      "componentType": 5126,
      "count": 1869,
      "max": [
        1.0,
        1.0,
        1.0
      ],
      "min": [
        -1.0,
        -1.0,
        -1.0
      ],
      "type": "VEC3"
    },
    {
      "bufferView": 1,
      "componentType": 5126,
      "count": 1869,
      "max": [
        1.0,
        1.0
      ],
      "min": [
        -1.862645149230957e-07,
        -0.007281899452209473
      ],
      "type": "VEC2"
    },
    {
      "bufferView": 0,
      "componentType": 5125,
      "count": 5313,
      "type": "SCALAR"
    },
    {
      "bufferView": 2,
      "byteOffset": 44856,
      "componentType": 5126,
      "count": 174,
      "max": [
        1.1343936920166016,
        0.8111225962638855,
        9.436038970947266
      ],
      "min": [
        0.09608732163906097,
        -0.28825920820236206,
        1.7226446866989136
      ],
      "type": "VEC3"
    },
    {
      "bufferView": 2,
      "byteOffset": 46944,
      "componentType": 5126,
      "count": 174,
      "max": [
        1.0,
        0.9998906850814819,
        0.785402238368988
      ],
      "min": [
        -0.6164017915725708,
        -0.9999960660934448,
        -0.999938428401947
      ],
      "type": "VEC3"
    },
    {
      "bufferView": 1,
      "byteOffset": 14952,
      "componentType": 5126,
      "count": 174,
      "max": [
        1.0,
        0.375
      ],
      "min": [
        2.9802322387695313e-08,
        0.18148940801620483
      ],
      "type": "VEC2"
    },
    {
      "bufferView": 0,
      "byteOffset": 21252,
      "componentType": 5125,
      "count": 459,
      "type": "SCALAR"
    },
    {
      "bufferView": 2,
      "byteOffset": 49032,
      "componentType": 5126,
      "count": 6,
      "max": [
        0.39145010709762573,
        0.27122989296913147,
        8.037449836730957
      ],
      "min": [
        0.39145010709762573,
        -0.1832113265991211,
        2.549398183822632
      ],
      "type": "VEC3"
    },
    {
      "bufferView": 2,
      "byteOffset": 49104,
      "componentType": 5126,
      "count": 6,
      "max": [
        1.0,
        0.0,
        -0.0
      ],
      "min": [
        1.0,
        0.0,
        -0.0
      ],
      "type": "VEC3"
    },
    {
      "bufferView": 1,
      "byteOffset": 16344,
      "componentType": 5126,
      "count": 6,
      "max": [
        0.5833331346511841,
        0.20072650909423828
      ],
      "min": [
        0.5833330750465393,
        0.1814894676208496
      ],
      "type": "VEC2"
    },
    {
      "bufferView": 0,
      "byteOffset": 23088,
      "componentType": 5125,
      "count": 12,
      "type": "SCALAR"
    },
    {
      "bufferView": 2,
      "byteOffset": 49176,
      "componentType": 5126,
      "count": 4,
      "max": [
        0.11591380834579468,
        -0.457781583070755,
        7.792847633361816
      ],
      "min": [
        0.11577922105789185,
        -0.6482170820236206,
        4.944878578186035
      ],
      "type": "VEC3"
    },
    {
      "bufferView": 2,
      "byteOffset": 49224,
      "componentType": 5126,
      "count": 4,
      "max": [
        0.9999997615814209,
        0.0006999998004175723,
        -0.0
      ],
      "min": [
        0.9999997615814209,
        0.0006999998004175723,
        -0.0
      ],
      "type": "VEC3"
    },
    {
      "bufferView": 1,
      "byteOffset": 16392,
      "componentType": 5126,
      "count": 4,
      "max": [
        0.5833331346511841,
        0.04537248611450195
      ],
      "min": [
        0.5833330750465393,
        0.014688074588775635
      ],
      "type": "VEC2"
    },
    {
      "bufferView": 0,
      "byteOffset": 23136,
      "componentType": 5125,
      "count": 6,
      "type": "SCALAR"
    },
    {
      "bufferView": 2,
      "byteOffset": 49272,
      "componentType": 5126,
      "count": 110,
      "max": [
        1.2488329410552979,
        0.8192781805992126,
        6.287936687469482
      ],
      "min": [
        1.0054744482040405,
        0.7450106143951416,
        5.597343921661377
      ],
      "type": "VEC3"
    },
    {
      "bufferView": 2,
      "byteOffset": 50592,
      "componentType": 5126,
      "count": 110,
      "max": [
        1.0,
        0.9977259039878845,
        0.5296927690505981
      ],
      "min": [
        0.06740175187587738,
        -0.9977259039878845,
        -0.5296927690505981
      ],
      "type": "VEC3"
    },
    {
      "bufferView": 1,
      "byteOffset": 16424,
      "componentType": 5126,
      "count": 110,
      "max": [
        1.0,
        0.3333333730697632
      ],
      "min": [
        0.0,
        0.0
      ],
      "type": "VEC2"
    },
    {
      "bufferView": 0,
      "byteOffset": 23160,
      "componentType": 5125,
      "count": 420,
      "type": "SCALAR"
    },
    {
      "bufferView": 2,
      "byteOffset": 51912,
      "componentType": 5126,
      "count": 110,
      "max": [
        1.2488327026367188,
        0.8192781805992126,
        5.252047538757324
      ],
      "min": [
        1.005474328994751,
        0.7450106143951416,
        4.561454772949219
      ],
      "type": "VEC3"
    },
    {
      "bufferView": 2,
      "byteOffset": 53232,
      "componentType": 5126,
      "count": 110,
      "max": [
        1.0,
        0.9977259039878845,
        0.5296927690505981
      ],
      "min": [
        0.06740175187587738,
        -0.9977259039878845,
        -0.5296927690505981
      ],
      "type": "VEC3"
    },
    {
      "bufferView": 1,
      "byteOffset": 17304,
      "componentType": 5126,
      "count": 110,
      "max": [
        1.0,
        0.3333333730697632
      ],
      "min": [
        0.0,
        0.0
      ],
      "type": "VEC2"
    },
    {
      "bufferView": 0,
      "byteOffset": 24840,
      "componentType": 5125,
      "count": 420,
      "type": "SCALAR"
    },
    {
      "bufferView": 2,
      "byteOffset": 54552,
      "componentType": 5126,
      "count": 110,
      "max": [
        1.2488325834274292,
        0.8192781805992126,
        4.216157913208008
      ],
      "min": [
        1.0054742097854614,
        0.7450106143951416,
        3.5255651473999023
      ],
      "type": "VEC3"
    },
    {
      "bufferView": 2,
      "byteOffset": 55872,
      "componentType": 5126,
      "count": 110,
      "max": [
        1.0,
        0.9977259039878845,
        0.5296927690505981
      ],
      "min": [
        0.06740175187587738,
        -0.9977259039878845,
        -0.5297104716300964
      ],
      "type": "VEC3"
    },
    {
      "bufferView": 1,
      "byteOffset": 18184,
      "componentType": 5126,
      "count": 110,
      "max": [
        1.0,
        0.3333333730697632
      ],
      "min": [
        0.0,
        0.0
      ],
      "type": "VEC2"
    },
    {
      "bufferView": 0,
      "byteOffset": 26520,
      "componentType": 5125,
      "count": 420,
      "type": "SCALAR"
    },
    {
      "bufferView": 2,
      "byteOffset": 57192,
      "componentType": 5126,
      "count": 216,
      "max": [
        1.783003330230713,
        0.7905620336532593,
        9.244852066040039
      ],
      "min": [
        1.0705362558364868,
        0.5612223744392395,
        7.112287521362305
      ],
      "type": "VEC3"
    },
    {
      "bufferView": 2,
      "byteOffset": 59784,
      "componentType": 5126,
      "count": 216,
      "max": [
        1.0,
        0.9983513951301575,
        0.6476989388465881
      ],
      "min": [
        0.057397209107875824,
        -0.9983513951301575,
        -0.6476989388465881
      ],
      "type": "VEC3"
    },
    {
      "bufferView": 1,
      "byteOffset": 19064,
      "componentType": 5126,
      "count": 216,
      "max": [
        1.0,
        0.375
      ],
      "min": [
        0.0,
        0.0
      ],
      "type": "VEC2"
    },
    {
      "bufferView": 0,
      "byteOffset": 28200,
      "componentType": 5125,
      "count": 924,
      "type": "SCALAR"
    },
    {
      "bufferView": 2,
      "byteOffset": 62376,
      "componentType": 5126,
      "count": 562,
      "max": [
        0.5534432530403137,
        -0.3475513458251953,
        9.286599159240723
      ],
      "min": [
        0.1468563973903656,
        -0.6965569257736206,
        1.2396374940872192
      ],
      "type": "VEC3"
    },
    {
      "bufferView": 2,
      "byteOffset": 69120,
      "componentType": 5126,
      "count": 562,
      "max": [
        1.0,
        1.0,
        0.9928219318389893
      ],
      "min": [
        -1.0,
        -1.0,
        -1.0
      ],
      "type": "VEC3"
    },
    {
      "bufferView": 1,
      "byteOffset": 20792,
      "componentType": 5126,
      "count": 562,
      "max": [
        0.8750000596046448,
        1.0
      ],
      "min": [
        0.0,
        0.0
      ],
      "type": "VEC2"
    },
    {
      "bufferView": 0,
      "byteOffset": 31896,
      "componentType": 5125,
      "count": 1656,
      "type": "SCALAR"
    },
    {
      "bufferView": 2,
      "byteOffset": 75864,
      "componentType": 5126,
      "count": 46,
      "max": [
        0.33325159549713135,
        -0.356012761592865,
        7.71502161026001
      ],
      "min": [
        0.2087458372116089,
        -0.3738953471183777,
        6.37881326675415
      ],
      "type": "VEC3"
    },
    {
      "bufferView": 2,
      "byteOffset": 76416,
      "componentType": 5126,
      "count": 46,
      "max": [
        1.0,
        0.9968826770782471,
        1.0
      ],
      "min": [
        -0.9691702127456665,
        -0.9968826770782471,
        -1.0
      ],
      "type": "VEC3"
    },
    {
      "bufferView": 1,
      "byteOffset": 25288,
      "componentType": 5126,
      "count": 46,
      "max": [
        0.5833331346511841,
        0.0
      ],
      "min": [
        0.5833331346511841,
        0.0
      ],
      "type": "VEC2"
    },
    {
      "bufferView": 0,
      "byteOffset": 38520,
      "componentType": 5125,
      "count": 96,
      "type": "SCALAR"
    },
    {
      "bufferView": 2,
      "byteOffset": 76968,
      "componentType": 5126,
      "count": 46,
      "max": [
        0.33325159549713135,
        -0.356012761592865,
        5.7018022537231445
      ],
      "min": [
        0.20874565839767456,
        -0.3738953471183777,
        4.313632011413574
      ],
      "type": "VEC3"
    },
    {
      "bufferView": 2,
      "byteOffset": 77520,
      "componentType": 5126,
      "count": 46,
      "max": [
        1.0,
        0.9969959259033203,
        1.0
      ],
      "min": [
        -0.9729284644126892,
        -0.9969959259033203,
        -0.998125433921814
      ],
      "type": "VEC3"
    },
    {
      "bufferView": 1,
      "byteOffset": 25656,
      "componentType": 5126,
      "count": 46,
      "max": [
        0.5833331346511841,
        0.0
      ],
      "min": [
        0.5833331346511841,
        0.0
      ],
      "type": "VEC2"
    },
    {
      "bufferView": 0,
      "byteOffset": 38904,
      "componentType": 5125,
      "count": 96,
      "type": "SCALAR"
    },
    {
      "bufferView": 2,
      "byteOffset": 78072,
      "componentType": 5126,
      "count": 6,
      "max": [
        0.40765705704689026,
        -0.20546939969062805,
        3.3041670322418213
      ],
      "min": [
        0.4076569378376007,
        -0.21316492557525635,
        2.540318250656128
      ],
      "type": "VEC3"
    },
    {
      "bufferView": 2,
      "byteOffset": 78144,
      "componentType": 5126,
      "count": 6,
      "max": [
        1.0,
        0.0,
        -0.0
      ],
      "min": [
        1.0,
        0.0,
        -0.0
      ],
      "type": "VEC3"
    },
    {
      "bufferView": 1,
      "byteOffset": 26024,
      "componentType": 5126,
      "count": 6,
      "max": [
        1.0,
        1.0
      ],
      "min": [
        0.0,
        0.0
      ],
      "type": "VEC2"
    },
    {
      "bufferView": 0,
      "byteOffset": 39288,
      "componentType": 5125,
      "count": 12,
      "type": "SCALAR"
    },
    {
      "bufferView": 2,
      "byteOffset": 78216,
      "componentType": 5126,
      "count": 1154,
      "max": [
        1.0,
        0.6457139849662781,
        10.076041221618652
      ],
      "min": [
        -1.0,
        -0.835973858833313,
        -1.0
      ],
      "type": "VEC3"
    },
    {
      "bufferView": 2,
      "byteOffset": 92064,
      "componentType": 5126,
      "count": 1154,
      "max": [
        1.0,
        1.0,
        1.0
      ],
      "min": [
        -1.0,
        -1.0,
        -1.0
      ],
      "type": "VEC3"
    },
    {
      "bufferView": 1,
      "byteOffset": 26072,
      "componentType": 5126,
      "count": 1154,
      "max": [
        1.0,
        1.0
      ],
      "min": [
        -1.862645149230957e-07,
        -1.1920928955078125e-07
      ],
      "type": "VEC2"
    },
    {
      "bufferView": 0,
      "byteOffset": 39336,
      "componentType": 5125,
      "count": 3291,
      "type": "SCALAR"
    },
    {
      "bufferView": 2,
      "byteOffset": 105912,
      "componentType": 5126,
      "count": 16,
      "max": [
        0.7507643699645996,
        0.29744231700897217,
        8.872556686401367
      ],
      "min": [
        0.7394153475761414,
        -0.7100217342376709,
        2.155085563659668
      ],
      "type": "VEC3"
    },
    {
      "bufferView": 2,
      "byteOffset": 106104,
      "componentType": 5126,
      "count": 16,
      "max": [
        -1.0,
        -0.0,
        0.0
      ],
      "min": [
        -1.0,
        -0.0,
        0.0
      ],
      "type": "VEC3"
    },
    {
      "bufferView": 1,
      "byteOffset": 35304,
      "componentType": 5126,
      "count": 16,
      "max": [
        0.5833331942558289,
        5.960464477539063e-08
      ],
      "min": [
        0.5833331346511841,
        -1.1920928955078125e-07
      ],
      "type": "VEC2"
    },
    {
      "bufferView": 0,
      "byteOffset": 52500,
      "componentType": 5125,
      "count": 30,
      "type": "SCALAR"
    },
    {
      "bufferView": 2,
      "byteOffset": 106296,
      "componentType": 5126,
      "count": 320,
      "max": [
        0.7781376242637634,
        -0.02984621375799179,
        8.784683227539063
      ],
      "min": [
        0.5772243738174438,
        -0.2694772779941559,
        2.2575886249542236
      ],
      "type": "VEC3"
    },
    {
      "bufferView": 2,
      "byteOffset": 110136,
      "componentType": 5126,
      "count": 320,
      "max": [
        0.0,
        1.0,
        1.0
      ],
      "min": [
        -0.9958875179290771,
        -1.0,
        -1.0
      ],
      "type": "VEC3"
    },
    {
      "bufferView": 1,
      "byteOffset": 35432,
      "componentType": 5126,
      "count": 320,
      "max": [
        0.5833331346511841,
        1.1920928955078125e-07
      ],
      "min": [
        0.5833330750465393,
        0.0
      ],
      "type": "VEC2"
    },
    {
      "bufferView": 0,
      "byteOffset": 52620,
      "componentType": 5125,
      "count": 624,
      "type": "SCALAR"
    },
    {
      "bufferView": 2,
      "byteOffset": 113976,
      "componentType": 5126,
      "count": 92,
      "max": [
        0.7204726934432983,
        -0.3078190088272095,
        8.867530822753906
      ],
      "min": [
        0.5959667563438416,
        -0.32570159435272217,
        6.163238048553467
      ],
      "type": "VEC3"
    },
    {
      "bufferView": 2,
      "byteOffset": 115080,
      "componentType": 5126,
      "count": 92,
      "max": [
        0.9691702127456665,
        0.9968826770782471,
        1.0
      ],
      "min": [
        -1.0,
        -0.9968826770782471,
        -1.0
      ],
      "type": "VEC3"
    },
    {
      "bufferView": 1,
      "byteOffset": 37992,
      "componentType": 5126,
      "count": 92,
      "max": [
        0.5833331346511841,
        0.0
      ],
      "min": [
        0.5833331346511841,
        0.0
      ],
      "type": "VEC2"
    },
    {
      "bufferView": 0,
      "byteOffset": 55116,
      "componentType": 5125,
      "count": 192,
      "type": "SCALAR"
    },
    {
      "bufferView": 2,
      "byteOffset": 116184,
      "componentType": 5126,
      "count": 77,
      "max": [
        0.7781372666358948,
        -0.36878740787506104,
        4.808971405029297
      ],
      "min": [
        0.5772244334220886,
        -0.48860299587249756,
        2.1990816593170166
      ],
      "type": "VEC3"
    },
    {
      "bufferView": 2,
      "byteOffset": 117108,
      "componentType": 5126,
      "count": 77,
      "max": [
        0.0014999983832240105,
        1.0,
        0.9999181032180786
      ],
      "min": [
        -0.9958875179290771,
        -1.0,
        -1.0
      ],
      "type": "VEC3"
    },
    {
      "bufferView": 1,
      "byteOffset": 38728,
      "componentType": 5126,
      "count": 77,
      "max": [
        0.5833331346511841,
        1.1920928955078125e-07
      ],
      "min": [
        0.5833330750465393,
        0.0
      ],
      "type": "VEC2"
    },
    {
      "bufferView": 0,
      "byteOffset": 55884,
      "componentType": 5125,
      "count": 144,
      "type": "SCALAR"
    },
    {
      "bufferView": 2,
      "byteOffset": 118032,
      "componentType": 5126,
      "count": 110,
      "max": [
        0.7399787902832031,
        -0.4027382433414459,
        8.609430313110352
      ],
      "min": [
        0.3411440849304199,
        -0.5244536399841309,
        7.477632999420166
      ],
      "type": "VEC3"
    },
    {
      "bufferView": 2,
      "byteOffset": 119352,
      "componentType": 5126,
      "count": 110,
      "max": [
        -0.06740175187587738,
        0.9977259039878845,
        0.5296927690505981
      ],
      "min": [
        -1.0,
        -0.9977259039878845,
        -0.5296927690505981
      ],
      "type": "VEC3"
    },
    {
      "bufferView": 1,
      "byteOffset": 39344,
      "componentType": 5126,
      "count": 110,
      "max": [
        1.0,
        0.3333333730697632
      ],
      "min": [
        0.0,
        0.0
      ],
      "type": "VEC2"
    },
    {
      "bufferView": 0,
      "byteOffset": 56460,
      "componentType": 5125,
      "count": 420,
      "type": "SCALAR"
    },
    {
      "bufferView": 2,
      "byteOffset": 120672,
      "componentType": 5126,
      "count": 3,
      "max": [
        0.8281382918357849,
        0.005493082106113434,
        9.732889175415039
      ],
      "min": [
        0.8281382322311401,
        -0.16637402772903442,
        8.971867561340332
      ],
      "type": "VEC3"
    },
    {
      "bufferView": 2,
      "byteOffset": 120708,
      "componentType": 5126,
      "count": 3,
      "max": [
        1.0,
        0.0,
        -0.0
      ],
      "min": [
        1.0,
        0.0,
        -0.0
      ],
      "type": "VEC3"
    },
    {
      "bufferView": 1,
      "byteOffset": 40224,
      "componentType": 5126,
      "count": 3,
      "max": [
        0.6666665077209473,
        0.0
      ],
      "min": [
        0.6666665077209473,
        0.0
      ],
      "type": "VEC2"
    },
    {
      "bufferView": 0,
      "byteOffset": 58140,
      "componentType": 5125,
      "count": 3,
      "type": "SCALAR"
    },
    {
      "bufferView": 2,
      "byteOffset": 120744,
      "componentType": 5126,
      "count": 72,
      "max": [
        0.4576912522315979,
        -0.7621960043907166,
        0.4576910138130188
      ],
      "min": [
        -0.4576913118362427,
        -0.835973858833313,
        -0.4576915502548218
      ],
      "type": "VEC3"
    },
    {
      "bufferView": 2,
      "byteOffset": 121608,
      "componentType": 5126,
      "count": 72,
      "max": [
        1.0,
        0.0,
        1.0
      ],
      "min": [
        -1.0,
        -1.0,
        -1.0
      ],
      "type": "VEC3"
    },
    {
      "bufferView": 1,
      "byteOffset": 40248,
      "componentType": 5126,
      "count": 72,
      "max": [
        0.9583333134651184,
        1.0
      ],
      "min": [
        -1.862645149230957e-07,
        0.0
      ],
      "type": "VEC2"
    },
    {
      "bufferView": 0,
      "byteOffset": 58152,
      "componentType": 5125,
      "count": 210,
      "type": "SCALAR"
    }
  ],
  "asset": {
    "extras": {
      "author": "aidanwolf (https://sketchfab.com/aidanwolf)",
      "license": "SKETCHFAB Standard (https://sketchfab.com/licenses)",
      "source": "https://sketchfab.com/3d-models/pokedex-0ec4ebddf61149829c7a3031451290f1",
      "title": "Pokédex"
    },
    "generator": "Sketchfab-16.28.0",
    "version": "2.0"
  },
  "bufferViews": [
    {
      "buffer": 0,
      "byteLength": 58992,
      "name": "floatBufferViews",
      "target": 34963
    },
    {
      "buffer": 0,
      "byteLength": 40824,
      "byteOffset": 58992,
      "byteStride": 8,
      "name": "floatBufferViews",
      "target": 34962
    },
    {
      "buffer": 0,
      "byteLength": 122472,
      "byteOffset": 99816,
      "byteStride": 12,
      "name": "floatBufferViews",
      "target": 34962
    }
  ],
  "buffers": [
    {
      "byteLength": 222288,
      "uri": "scene.bin"
    }
  ],
  "materials": [
    {
      "doubleSided": true,
      "name": "material",
      "pbrMetallicRoughness": {
        "baseColorFactor": [
          0.711222,
          0.0062015,
          0.030708,
          1.0
        ],
        "metallicFactor": 0.4,
        "roughnessFactor": 0.4
      }
    },
    {
      "doubleSided": true,
      "name": "White",
      "pbrMetallicRoughness": {
        "baseColorFactor": [
          0.8,
          0.8,
          0.8,
          1.0
        ],
        "metallicFactor": 0.0,
        "roughnessFactor": 0.5
      }
    },
    {
      "doubleSided": true,
      "name": "material_2",
      "pbrMetallicRoughness": {
        "baseColorFactor": [
          0.0497447,
          0.0497447,
          0.0497447,
          1.0
        ],
        "metallicFactor": 0.653465,
        "roughnessFactor": 0.0742574
      }
    },
    {
      "doubleSided": true,
      "name": "LCD2",
      "pbrMetallicRoughness": {
        "baseColorFactor": [
          0.0839639,
          0.41427,
          0.114755,
          1.0
        ],
        "metallicFactor": 0.0,
        "roughnessFactor": 0.5
      }
    },
    {
      "doubleSided": true,
      "name": "LightRed",
      "pbrMetallicRoughness": {
        "baseColorFactor": [
          0.799999,
          0.0,
          0.00172418,
          1.0
        ],
        "metallicFactor": 0.3,
        "roughnessFactor": 0.2
      }
    },
    {
      "doubleSided": true,
      "name": "LightYellow",
      "pbrMetallicRoughness": {
        "baseColorFactor": [
          0.799999,
          0.462026,
          0.0,
          1.0
        ],
        "metallicFactor": 0.3,
        "roughnessFactor": 0.2
      }
    },
    {
      "doubleSided": true,
      "name": "LightGreen",
      "pbrMetallicRoughness": {
        "baseColorFactor": [
          0.0513107,
          0.450415,
          0.0,
          1.0
        ],
        "metallicFactor": 0.3,
        "roughnessFactor": 0.2
      }
    },
    {
      "doubleSided": true,
      "name": "Lens",
      "pbrMetallicRoughness": {
        "baseColorFactor": [
          0.159792,
          0.360007,
          0.799999,
          1.0
        ],
        "metallicFactor": 0.574257,
        "roughnessFactor": 0.222772
      }
    },
    {
      "doubleSided": true,
      "name": "Black",
      "pbrMetallicRoughness": {
        "baseColorFactor": [
          0.0567477,
          0.0567477,
          0.0567477,
          1.0
        ],
        "metallicFactor": 0.0,
        "roughnessFactor": 0.5
      }
    },
    {
      "doubleSided": true,
      "name": "Pinkish",
      "pbrMetallicRoughness": {
        "baseColorFactor": [
          0.799999,
          0.0248962,
          0.0637556,
          1.0
        ],
        "metallicFactor": 0.0
      }
    },
    {
      "doubleSided": true,
      "name": "Blue",
      "pbrMetallicRoughness": {
        "baseColorFactor": [
          0.0100551,
          0.274283,
          0.799999,
          1.0
        ],
        "metallicFactor": 0.0
      }
    },
    {
      "doubleSided": true,
      "name": "Dark",
      "pbrMetallicRoughness": {
        "baseColorFactor": [
          0.232909,
          0.232909,
          0.232909,
          1.0
        ],
        "metallicFactor": 0.0
      }
    },
    {
      "doubleSided": true,
      "name": "Material.002",
      "pbrMetallicRoughness": {
        "baseColorFactor": [
          0.112525,
          0.255034,
          0.799999,
          1.0
        ],
        "metallicFactor": 0.0,
        "roughnessFactor": 0.5
      }
    },
    {
      "doubleSided": true,
      "name": "White.001",
      "pbrMetallicRoughness": {
        "metallicFactor": 0.0,
        "roughnessFactor": 0.5
      }
    },
    {
      "doubleSided": true,
      "name": "Yellow",
      "pbrMetallicRoughness": {
        "baseColorFactor": [
          0.799999,
          0.652569,
          0.0,
          1.0
        ],
        "metallicFactor": 0.0,
        "roughnessFactor": 0.5
      }
    },
    {
      "doubleSided": true,
      "name": "Metal",
      "pbrMetallicRoughness": {
        "baseColorFactor": [
          0.8,
          0.8,
          0.8,
          1.0
        ],
        "metallicFactor": 0.326733,
        "roughnessFactor": 0.341584
      }
    }
  ],
  "meshes": [
    {
      "name": "Object_0",
      "primitives": [
        {
          "attributes": {
            "NORMAL": 1,
            "POSITION": 0,
            "TEXCOORD_0": 2
          },
          "indices": 3,
          "material": 0,
          "mode": 4
        }
      ]
    },
    {
      "name": "Object_1",
      "primitives": [
        {
          "attributes": {
            "NORMAL": 5,
            "POSITION": 4,
            "TEXCOORD_0": 6
          },
          "indices": 7,
          "material": 1,
          "mode": 4
        }
      ]
    },
    {
      "name": "Object_2",
      "primitives": [
        {
          "attributes": {
            "NORMAL": 9,
            "POSITION": 8,
            "TEXCOORD_0": 10
          },
          "indices": 11,
          "material": 2,
          "mode": 4
        }
      ]
    },
    {
      "name": "Object_3",
      "primitives": [
        {
          "attributes": {
            "NORMAL": 13,
            "POSITION": 12,
            "TEXCOORD_0": 14
          },
          "indices": 15,
          "material": 3,
          "mode": 4
        }
      ]
    },
    {
      "name": "Object_4",
      "primitives": [
        {
          "attributes": {
            "NORMAL": 17,
            "POSITION": 16,
            "TEXCOORD_0": 18
          },
          "indices": 19,
          "material": 4,
          "mode": 4
        }
      ]
    },
    {
      "name": "Object_5",
      "primitives": [
        {
          "attributes": {
            "NORMAL": 21,
            "POSITION": 20,
            "TEXCOORD_0": 22
          },
          "indices": 23,
          "material": 5,
          "mode": 4
        }
      ]
    },
    {
      "name": "Object_6",
      "primitives": [
        {
          "attributes": {
            "NORMAL": 25,
            "POSITION": 24,
            "TEXCOORD_0": 26
          },
          "indices": 27,
          "material": 6,
          "mode": 4
        }
      ]
    },
    {
      "name": "Object_7",
      "primitives": [
        {
          "attributes": {
            "NORMAL": 29,
            "POSITION": 28,
            "TEXCOORD_0": 30
          },
          "indices": 31,
          "material": 7,
          "mode": 4
        }
      ]
    },
    {
      "name": "Object_8",
      "primitives": [
        {
          "attributes": {
            "NORMAL": 33,
            "POSITION": 32,
            "TEXCOORD_0": 34
          },
          "indices": 35,
          "material": 8,
          "mode": 4
        }
      ]
    },
    {
      "name": "Object_9",
      "primitives": [
        {
          "attributes": {
            "NORMAL": 37,
            "POSITION": 36,
            "TEXCOORD_0": 38
          },
          "indices": 39,
          "material": 9,
          "mode": 4
        }
      ]
    },
    {
      "name": "Object_10",
      "primitives": [
        {
          "attributes": {
            "NORMAL": 41,
            "POSITION": 40,
            "TEXCOORD_0": 42
          },
          "indices": 43,
          "material": 10,
          "mode": 4
        }
      ]
    },
    {
      "name": "Object_11",
      "primitives": [
        {
          "attributes": {
            "NORMAL": 45,
            "POSITION": 44,
            "TEXCOORD_0": 46
          },
          "indices": 47,
          "material": 11,
          "mode": 4
        }
      ]
    },
    {
      "name": "Object_12",
      "primitives": [
        {
          "attributes": {
            "NORMAL": 49,
            "POSITION": 48,
            "TEXCOORD_0": 50
          },
          "indices": 51,
          "material": 0,
          "mode": 4
        }
      ]
    },
    {
      "name": "Object_13",
      "primitives": [
        {
          "attributes": {
            "NORMAL": 53,
            "POSITION": 52,
            "TEXCOORD_0": 54
          },
          "indices": 55,
          "material": 2,
          "mode": 4
        }
      ]
    },
    {
      "name": "Object_14",
      "primitives": [
        {
          "attributes": {
            "NORMAL": 57,
            "POSITION": 56,
            "TEXCOORD_0": 58
          },
          "indices": 59,
          "material": 12,
          "mode": 4
        }
      ]
    },
    {
      "name": "Object_15",
      "primitives": [
        {
          "attributes": {
            "NORMAL": 61,
            "POSITION": 60,
            "TEXCOORD_0": 62
          },
          "indices": 63,
          "material": 8,
          "mode": 4
        }
      ]
    },
    {
      "name": "Object_16",
      "primitives": [
        {
          "attributes": {
            "NORMAL": 65,
            "POSITION": 64,
            "TEXCOORD_0": 66
          },
          "indices": 67,
          "material": 13,
          "mode": 4
        }
      ]
    },
    {
      "name": "Object_17",
      "primitives": [
        {
          "attributes": {
            "NORMAL": 69,
            "POSITION": 68,
            "TEXCOORD_0": 70
          },
          "indices": 71,
          "material": 5,
          "mode": 4
        }
      ]
    },
    {
      "name": "Object_18",
      "primitives": [
        {
          "attributes": {
            "NORMAL": 73,
            "POSITION": 72,
            "TEXCOORD_0": 74
          },
          "indices": 75,
          "material": 14,
          "mode": 4
        }
      ]
    },
    {
      "name": "Object_19",
      "primitives": [
        {
          "attributes": {
            "NORMAL": 77,
            "POSITION": 76,
            "TEXCOORD_0": 78
          },
          "indices": 79,
          "material": 15,
          "mode": 4
        }
      ]
    }
  ],
  "nodes": [
    {
      "children": [
        1
      ],
      "matrix": [
        1.0,
        0.0,
        0.0,
        0.0,
        0.0,
        2.220446049250313e-16,
        -1.0,
        0.0,
        0.0,
        1.0,
        2.220446049250313e-16,
        0.0,
        0.0,
        0.0,
        0.0,
        1.0
      ],
      "name": "Sketchfab_model"
    },
    {
      "children": [
        2
      ],
      "name": "root"
    },
    {
      "children": [
        3
      ],
      "matrix": [
        1.0,
        0.0,
        0.0,
        0.0,
        0.0,
        2.220446049250313e-16,
        1.0,
        0.0,
        0.0,
        -1.0,
        2.220446049250313e-16,
        0.0,
        0.0,
        0.0,
        0.0,
        1.0
      ],
      "name": "GLTF_SceneRootNode"
    },
    {
      "children": [
        4,
        5,
        6,
        7,
        8,
        9,
        10,
        11,
        12,
        13,
        14,
        15,
        16
      ],
      "matrix": [
        0.12929002940654755,
        0.0,
        0.0,
        0.0,
        0.0,
        1.2022309303283691,
        0.0,
        0.0,
        0.0,
        0.0,
        0.12929002940654755,
        0.0,
        0.0,
        0.0,
        0.0,
        1.0
      ],
      "name": "Cylinder_1"
    },
    {
      "mesh": 0,
      "name": "Object_4"
    },
    {
      "mesh": 1,
      "name": "Object_5"
    },
    {
      "mesh": 2,
      "name": "Object_6"
    },
    {
      "mesh": 3,
      "name": "Object_7"
    },
    {
      "mesh": 4,
      "name": "Object_8"
    },
    {
      "mesh": 5,
      "name": "Object_9"
    },
    {
      "mesh": 6,
      "name": "Object_10"
    },
    {
      "mesh": 7,
      "name": "Object_11"
    },
    {
      "mesh": 8,
      "name": "Object_12"
    },
    {
      "mesh": 9,
      "name": "Object_13"
    },
    {
      "mesh": 10,
      "name": "Object_14"
    },
    {
      "mesh": 11,
      "name": "Object_15"
    },
    {
      "children": [
        17,
        18,
        19,
        20,
        21,
        22,
        23,
        24
      ],
      "matrix": [
        -0.8696187993992988,
        0.0,
        -0.4937237524479881,
        0.0,
        0.0,
        1.0,
        0.0,
        0.0,
        0.4937237524479881,
        0.0,
        -0.8696187993992988,
        0.0,
        0.0,
        0.0,
        0.0,
        1.0
      ],
      "name": "Cylinder.002_0"
    },
    {
      "mesh": 12,
      "name": "Object_17"
    },
    {
      "mesh": 13,
      "name": "Object_18"
    },
    {
      "mesh": 14,
      "name": "Object_19"
    },
    {
      "mesh": 15,
      "name": "Object_20"
    },
    {
      "mesh": 16,
      "name": "Object_21"
    },
    {
      "mesh": 17,
      "name": "Object_22"
    },
    {
      "mesh": 18,
      "name": "Object_23"
    },
    {
      "mesh": 19,
      "name": "Object_24"
    }
  ],
  "scene": 0,
  "scenes": [
    {
      "name": "Sketchfab_Scene",
      "nodes": [
        0
      ]
    }
  ]
}
