{
  "accessors": [
    {
      "bufferView": 2,
      "componentType": 5126,
      "count": 24,
      "max": [
        1.172217845916748,
        0.2232351303100586,
        -3.1245851516723633
      ],
      "min": [
        0.999877393245697,
        -0.12628716230392456,
        -3.1615233421325684
      ],
      "type": "VEC3"
    },
    {
      "bufferView": 2,
      "byteOffset": 288,
      "componentType": 5126,
      "count": 24,
      "max": [
        0.9483307003974915,
        0.7606430649757385,
        1.0
      ],
      "min": [
        -0.9999527335166931,
        -0.6469177007675171,
        -1.0
      ],
      "type": "VEC3"
    },
    {
      "bufferView": 1,
      "componentType": 5126,
      "count": 24,
      "max": [
        1.0,
        1.0
      ],
      "min": [
        0.0,
        0.0
      ],
      "type": "VEC2"
    },
    {
      "bufferView": 0,
      "componentType": 5125,
      "count": 36,
      "type": "SCALAR"
    },
    {
      "bufferView": 2,
      "byteOffset": 576,
      "componentType": 5126,
      "count": 24,
      "max": [
        -18.40825843811035,
        6.842312812805176,
        0.1921888291835785
      ],
      "min": [
        -30.80589485168457,
        0.33214884996414185,
        -0.1921888291835785
      ],
      "type": "VEC3"
    },
    {
      "bufferView": 2,
      "byteOffset": 864,
      "componentType": 5126,
      "count": 24,
      "max": [
        0.9267053604125977,
        0.9285226464271545,
        1.0
      ],
      "min": [
        -0.9267053008079529,
        -0.9285226464271545,
        -1.0
      ],
      "type": "VEC3"
    },
    {
      "bufferView": 1,
      "byteOffset": 192,
      "componentType": 5126,
      "count": 24,
      "max": [
        1.0,
        1.0
      ],
      "min": [
        0.0,
        0.0
      ],
      "type": "VEC2"
    },
    {
      "bufferView": 0,
      "byteOffset": 144,
      "componentType": 5125,
      "count": 36,
      "type": "SCALAR"
    },
    {
      "bufferView": 2,
      "byteOffset": 1152,
      "componentType": 5126,
      "count": 6838,
      "max": [
        1.0870200395584106,
        1.0870198011398315,
        0.9803531169891357
      ],
      "min": [
        -1.0870195627212524,
        -1.087019443511963,
        -0.008678493089973927
      ],
      "type": "VEC3"
    },
    {
      "bufferView": 2,
      "byteOffset": 83208,
      "componentType": 5126,
      "count": 6838,
      "max": [
        0.9997180700302124,
        0.9997173547744751,
        1.0
      ],
      "min": [
        -0.9997180700302124,
        -0.9997180700302124,
        -0.9952229857444763
      ],
      "type": "VEC3"
    },
    {
      "bufferView": 1,
      "byteOffset": 384,
      "componentType": 5126,
      "count": 6838,
      "max": [
        0.947435736656189,
        0.9841690063476563
      ],
      "min": [
        0.0,
        0.0
      ],
      "type": "VEC2"
    },
    {
      "bufferView": 0,
      "byteOffset": 288,
      "componentType": 5125,
      "count": 28416,
      "type": "SCALAR"
    },
    {
      "bufferView": 2,
      "byteOffset": 165264,
      "componentType": 5126,
      "count": 1305,
      "max": [
        1.085059404373169,
        1.085059404373169,
        0.19898459315299988
      ],
      "min": [
        -1.0850590467453003,
        -1.0850589275360107,
        0.024118643254041672
      ],
      "type": "VEC3"
    },
    {
      "bufferView": 2,
      "byteOffset": 180924,
      "componentType": 5126,
      "count": 1305,
      "max": [
        0.9952439069747925,
        0.9952439069747925,
        0.9999421834945679
      ],
      "min": [
        -0.9952439069747925,
        -0.9952439069747925,
        0.09741554409265518
      ],
      "type": "VEC3"
    },
    {
      "bufferView": 1,
      "byteOffset": 55088,
      "componentType": 5126,
      "count": 1305,
      "max": [
        1.0,
        0.9997026920318604
      ],
      "min": [
        0.00028551710420288146,
        0.3074878454208374
      ],
      "type": "VEC2"
    },
    {
      "bufferView": 0,
      "byteOffset": 113952,
      "componentType": 5125,
      "count": 6144,
      "type": "SCALAR"
    },
    {
      "bufferView": 2,
      "byteOffset": 196584,
      "componentType": 5126,
      "count": 4013,
      "max": [
        0.9939957857131958,
        0.9939956665039063,
        0.9803531169891357
      ],
      "min": [
        -0.9939952492713928,
        -0.9939952492713928,
        7.549790126404332e-08
      ],
      "type": "VEC3"
    },
    {
      "bufferView": 2,
      "byteOffset": 244740,
      "componentType": 5126,
      "count": 4013,
      "max": [
        0.9952439069747925,
        0.9952439069747925,
        1.0
      ],
      "min": [
        -0.9952439069747925,
        -0.9952439069747925,
        0.09741554409265518
      ],
      "type": "VEC3"
    },
    {
      "bufferView": 1,
      "byteOffset": 65528,
      "componentType": 5126,
      "count": 4013,
      "max": [
        1.0,
        1.0
      ],
      "min": [
        0.0,
        0.0
      ],
      "type": "VEC2"
    },
    {
      "bufferView": 0,
      "byteOffset": 138528,
      "componentType": 5125,
      "count": 22272,
      "type": "SCALAR"
    },
    {
      "bufferView": 2,
      "byteOffset": 292896,
      "componentType": 5126,
      "count": 4013,
      "max": [
        0.9939957857131958,
        0.9939956665039063,
        0.9803531169891357
      ],
      "min": [
        -0.9939952492713928,
        -0.9939952492713928,
        7.549790126404332e-08
      ],
      "type": "VEC3"
    },
    {
      "bufferView": 2,
      "byteOffset": 341052,
      "componentType": 5126,
      "count": 4013,
      "max": [
        0.9952439069747925,
        0.9952439069747925,
        1.0
      ],
      "min": [
        -0.9952439069747925,
        -0.9952439069747925,
        0.09741554409265518
      ],
      "type": "VEC3"
    },
    {
      "bufferView": 1,
      "byteOffset": 97632,
      "componentType": 5126,
      "count": 4013,
      "max": [
        1.0,
        1.0
      ],
      "min": [
        0.0,
        0.0
      ],
      "type": "VEC2"
    },
    {
      "bufferView": 0,
      "byteOffset": 227616,
      "componentType": 5125,
      "count": 22272,
      "type": "SCALAR"
    },
    {
      "bufferView": 2,
      "byteOffset": 389208,
      "componentType": 5126,
      "count": 4013,
      "max": [
        0.9939957857131958,
        0.9939956665039063,
        0.9803531169891357
      ],
      "min": [
        -0.9939952492713928,
        -0.9939952492713928,
        7.549790126404332e-08
      ],
      "type": "VEC3"
    },
    {
      "bufferView": 2,
      "byteOffset": 437364,
      "componentType": 5126,
      "count": 4013,
      "max": [
        0.9952439069747925,
        0.9952439069747925,
        1.0
      ],
      "min": [
        -0.9952439069747925,
        -0.9952439069747925,
        0.09741554409265518
      ],
      "type": "VEC3"
    },
    {
      "bufferView": 1,
      "byteOffset": 129736,
      "componentType": 5126,
      "count": 4013,
      "max": [
        1.0,
        1.0
      ],
      "min": [
        0.0,
        0.0
      ],
      "type": "VEC2"
    },
    {
      "bufferView": 0,
      "byteOffset": 316704,
      "componentType": 5125,
      "count": 22272,
      "type": "SCALAR"
    },
    {
      "bufferView": 2,
      "byteOffset": 485520,
      "componentType": 5126,
      "count": 485,
      "max": [
        0.7287467122077942,
        2.597780704498291,
        -0.5401012897491455
      ],
      "min": [
        -4.694943904876709,
        -1.0946362018585205,
        -1.1720061302185059
      ],
      "type": "VEC3"
    },
    {
      "bufferView": 2,
      "byteOffset": 491340,
      "componentType": 5126,
      "count": 485,
      "max": [
        1.0,
        0.9999529123306274,
        1.0
      ],
      "min": [
        -1.0,
        -0.9999525547027588,
        -1.0
      ],
      "type": "VEC3"
    },
    {
      "bufferView": 1,
      "byteOffset": 161840,
      "componentType": 5126,
      "count": 485,
      "max": [
        1.0,
        1.0
      ],
      "min": [
        0.0,
        0.0
      ],
      "type": "VEC2"
    },
    {
      "bufferView": 0,
      "byteOffset": 405792,
      "componentType": 5125,
      "count": 792,
      "type": "SCALAR"
    },
    {
      "bufferView": 2,
      "byteOffset": 497160,
      "componentType": 5126,
      "count": 968,
      "max": [
        -0.14387285709381104,
        1.167624592781067,
        7.878478050231934
      ],
      "min": [
        -1.8288017511367798,
        -0.5573578476905823,
        -9.774093627929688
      ],
      "type": "VEC3"
    },
    {
      "bufferView": 2,
      "byteOffset": 508776,
      "componentType": 5126,
      "count": 968,
      "max": [
        1.0,
        0.9999974966049194,
        0.6904343962669373
      ],
      "min": [
        -1.0,
        -0.9999974966049194,
        -0.6904343962669373
      ],
      "type": "VEC3"
    },
    {
      "bufferView": 1,
      "byteOffset": 165720,
      "componentType": 5126,
      "count": 968,
      "max": [
        1.0,
        1.0
      ],
      "min": [
        0.0,
        0.0
      ],
      "type": "VEC2"
    },
    {
      "bufferView": 0,
      "byteOffset": 408960,
      "componentType": 5125,
      "count": 3444,
      "type": "SCALAR"
    },
    {
      "bufferView": 2,
      "byteOffset": 520392,
      "componentType": 5126,
      "count": 1891,
      "max": [
        2.663086175918579,
        1.0,
        -3.316936492919922
      ],
      "min": [
        -4.363844871520996,
        -1.1990787982940674,
        -3.910308361053467
      ],
      "type": "VEC3"
    },
    {
      "bufferView": 2,
      "byteOffset": 543084,
      "componentType": 5126,
      "count": 1891,
      "max": [
        1.0,
        1.0,
        1.0
      ],
      "min": [
        -1.0,
        -1.0,
        -1.0
      ],
      "type": "VEC3"
    },
    {
      "bufferView": 1,
      "byteOffset": 173464,
      "componentType": 5126,
      "count": 1891,
      "max": [
        1.0,
        1.0
      ],
      "min": [
        0.0,
        0.0
      ],
      "type": "VEC2"
    },
    {
      "bufferView": 0,
      "byteOffset": 422736,
      "componentType": 5125,
      "count": 6108,
      "type": "SCALAR"
    },
    {
      "bufferView": 2,
      "byteOffset": 565776,
      "componentType": 5126,
      "count": 811,
      "max": [
        -2.1599280834198,
        -1.8778038024902344,
        -3.332766056060791
      ],
      "min": [
        -4.359140396118164,
        -3.283397912979126,
        -3.910308361053467
      ],
      "type": "VEC3"
    },
    {
      "bufferView": 2,
      "byteOffset": 575508,
      "componentType": 5126,
      "count": 811,
      "max": [
        1.0,
        1.0,
        1.0
      ],
      "min": [
        -1.0,
        -1.0,
        -1.0
      ],
      "type": "VEC3"
    },
    {
      "bufferView": 1,
      "byteOffset": 188592,
      "componentType": 5126,
      "count": 811,
      "max": [
        1.0,
        1.0
      ],
      "min": [
        0.0,
        0.0
      ],
      "type": "VEC2"
    },
    {
      "bufferView": 0,
      "byteOffset": 447168,
      "componentType": 5125,
      "count": 1218,
      "type": "SCALAR"
    },
    {
      "bufferView": 2,
      "byteOffset": 585240,
      "componentType": 5126,
      "count": 24,
      "max": [
        2.663086175918579,
        1.0,
        -3.4580600261688232
      ],
      "min": [
        -4.363844871520996,
        -1.1990787982940674,
        -3.910308361053467
      ],
      "type": "VEC3"
    },
    {
      "bufferView": 2,
      "byteOffset": 585528,
      "componentType": 5126,
      "count": 24,
      "max": [
        1.0,
        1.0,
        1.0
      ],
      "min": [
        -1.0,
        -1.0,
        -1.0
      ],
      "type": "VEC3"
    },
    {
      "bufferView": 1,
      "byteOffset": 195080,
      "componentType": 5126,
      "count": 24,
      "max": [
        1.0,
        0.9999999403953552
      ],
      "min": [
        0.0,
        0.0
      ],
      "type": "VEC2"
    },
    {
      "bufferView": 0,
      "byteOffset": 452040,
      "componentType": 5125,
      "count": 36,
      "type": "SCALAR"
    },
    {
      "bufferView": 2,
      "byteOffset": 585816,
      "componentType": 5126,
      "count": 48,
      "max": [
        -38.61966323852539,
        -59.7647705078125,
        1.0
      ],
      "min": [
        -115.24310302734375,
        -67.75619506835938,
        -1.0
      ],
      "type": "VEC3"
    },
    {
      "bufferView": 2,
      "byteOffset": 586392,
      "componentType": 5126,
      "count": 48,
      "max": [
        0.9976162910461426,
        0.9987571835517883,
        1.0
      ],
      "min": [
        -0.9976162314414978,
        -0.9987571835517883,
        -1.0
      ],
      "type": "VEC3"
    },
    {
      "bufferView": 1,
      "byteOffset": 195272,
      "componentType": 5126,
      "count": 48,
      "max": [
        1.0,
        1.0
      ],
      "min": [
        0.0,
        0.0
      ],
      "type": "VEC2"
    },
    {
      "bufferView": 0,
      "byteOffset": 452184,
      "componentType": 5125,
      "count": 72,
      "type": "SCALAR"
    },
    {
      "bufferView": 2,
      "byteOffset": 586968,
      "componentType": 5126,
      "count": 1259,
      "max": [
        3.8343968391418457,
        0.33771347999572754,
        0.008557181805372238
      ],
      "min": [
        -1.7035624980926514,
        -2.449007034301758,
        -0.048411887139081955
      ],
      "type": "VEC3"
    },
    {
      "bufferView": 2,
      "byteOffset": 602076,
      "componentType": 5126,
      "count": 1259,
      "max": [
        0.9966694712638855,
        0.9996579885482788,
        1.0
      ],
      "min": [
        -0.9830232262611389,
        -0.9965893030166626,
        -1.0
      ],
      "type": "VEC3"
    },
    {
      "bufferView": 1,
      "byteOffset": 195656,
      "componentType": 5126,
      "count": 1259,
      "max": [
        1.0,
        1.0
      ],
      "min": [
        0.0,
        0.0
      ],
      "type": "VEC2"
    },
    {
      "bufferView": 0,
      "byteOffset": 452472,
      "componentType": 5125,
      "count": 5760,
      "type": "SCALAR"
    },
    {
      "bufferView": 2,
      "byteOffset": 617184,
      "componentType": 5126,
      "count": 4013,
      "max": [
        0.9939957857131958,
        0.9939956665039063,
        0.9803531169891357
      ],
      "min": [
        -0.9939952492713928,
        -0.9939952492713928,
        7.549790126404332e-08
      ],
      "type": "VEC3"
    },
    {
      "bufferView": 2,
      "byteOffset": 665340,
      "componentType": 5126,
      "count": 4013,
      "max": [
        0.9952439069747925,
        0.9952439069747925,
        1.0
      ],
      "min": [
        -0.9952439069747925,
        -0.9952439069747925,
        0.09741554409265518
      ],
      "type": "VEC3"
    },
    {
      "bufferView": 1,
      "byteOffset": 205728,
      "componentType": 5126,
      "count": 4013,
      "max": [
        1.0,
        1.0
      ],
      "min": [
        0.0,
        0.0
      ],
      "type": "VEC2"
    },
    {
      "bufferView": 0,
      "byteOffset": 475512,
      "componentType": 5125,
      "count": 22272,
      "type": "SCALAR"
    },
    {
      "bufferView": 2,
      "byteOffset": 713496,
      "componentType": 5126,
      "count": 968,
      "max": [
        -0.14387285709381104,
        1.167624592781067,
        7.878478050231934
      ],
      "min": [
        -1.8288017511367798,
        -0.5573578476905823,
        -9.774093627929688
      ],
      "type": "VEC3"
    },
    {
      "bufferView": 2,
      "byteOffset": 725112,
      "componentType": 5126,
      "count": 968,
      "max": [
        1.0,
        0.9999974966049194,
        0.6904343962669373
      ],
      "min": [
        -1.0,
        -0.9999974966049194,
        -0.6904343962669373
      ],
      "type": "VEC3"
    },
    {
      "bufferView": 1,
      "byteOffset": 237832,
      "componentType": 5126,
      "count": 968,
      "max": [
        1.0,
        1.0
      ],
      "min": [
        0.0,
        0.0
      ],
      "type": "VEC2"
    },
    {
      "bufferView": 0,
      "byteOffset": 564600,
      "componentType": 5125,
      "count": 3444,
      "type": "SCALAR"
    },
    {
      "bufferView": 2,
      "byteOffset": 736728,
      "componentType": 5126,
      "count": 1612,
      "max": [
        4.127389430999756,
        3.8693926334381104,
        16.84534454345703
      ],
      "min": [
        -3.893235921859741,
        -4.1029133796691895,
        14.600422859191895
      ],
      "type": "VEC3"
    },
    {
      "bufferView": 2,
      "byteOffset": 756072,
      "componentType": 5126,
      "count": 1612,
      "max": [
        0.9999760389328003,
        1.0,
        0.9999998807907104
      ],
      "min": [
        -0.9999738931655884,
        -1.0,
        -0.9999998807907104
      ],
      "type": "VEC3"
    },
    {
      "bufferView": 1,
      "byteOffset": 245576,
      "componentType": 5126,
      "count": 1612,
      "max": [
        1.0,
        1.0
      ],
      "min": [
        0.0,
        0.0
      ],
      "type": "VEC2"
    },
    {
      "bufferView": 0,
      "byteOffset": 578376,
      "componentType": 5125,
      "count": 8064,
      "type": "SCALAR"
    },
    {
      "bufferView": 2,
      "byteOffset": 775416,
      "componentType": 5126,
      "count": 629,
      "max": [
        0.5257638096809387,
        0.6393260955810547,
        0.05696906894445419
      ],
      "min": [
        -1.805229902267456,
        -1.2384151220321655,
        0.0
      ],
      "type": "VEC3"
    },
    {
      "bufferView": 2,
      "byteOffset": 782964,
      "componentType": 5126,
      "count": 629,
      "max": [
        0.9998682737350464,
        0.9862807989120483,
        1.0
      ],
      "min": [
        -0.9972555041313171,
        -0.9736807346343994,
        -1.0
      ],
      "type": "VEC3"
    },
    {
      "bufferView": 1,
      "byteOffset": 258472,
      "componentType": 5126,
      "count": 629,
      "max": [
        0.9999999403953552,
        1.0
      ],
      "min": [
        0.0,
        0.0
      ],
      "type": "VEC2"
    },
    {
      "bufferView": 0,
      "byteOffset": 610632,
      "componentType": 5125,
      "count": 2880,
      "type": "SCALAR"
    },
    {
      "bufferView": 2,
      "byteOffset": 790512,
      "componentType": 5126,
      "count": 24,
      "max": [
        -106.82119750976563,
        -47.4998893737793,
        1.0
      ],
      "min": [
        -141.5957489013672,
        -53.50017547607422,
        -1.0
      ],
      "type": "VEC3"
    },
    {
      "bufferView": 2,
      "byteOffset": 790800,
      "componentType": 5126,
      "count": 24,
      "max": [
        0.9976162910461426,
        0.9987571239471436,
        1.0
      ],
      "min": [
        -0.997616171836853,
        -0.9987571835517883,
        -1.0
      ],
      "type": "VEC3"
    },
    {
      "bufferView": 1,
      "byteOffset": 263504,
      "componentType": 5126,
      "count": 24,
      "max": [
        1.0,
        0.9999998807907104
      ],
      "min": [
        0.0,
        0.0
      ],
      "type": "VEC2"
    },
    {
      "bufferView": 0,
      "byteOffset": 622152,
      "componentType": 5125,
      "count": 36,
      "type": "SCALAR"
    },
    {
      "bufferView": 2,
      "byteOffset": 791088,
      "componentType": 5126,
      "count": 24,
      "max": [
        -47.0541877746582,
        -48.992835998535156,
        1.0
      ],
      "min": [
        -81.82874298095703,
        -54.993125915527344,
        -1.0
      ],
      "type": "VEC3"
    },
    {
      "bufferView": 2,
      "byteOffset": 791376,
      "componentType": 5126,
      "count": 24,
      "max": [
        0.9976162910461426,
        0.9987571835517883,
        1.0
      ],
      "min": [
        -0.997616171836853,
        -0.9987571835517883,
        -1.0
      ],
      "type": "VEC3"
    },
    {
      "bufferView": 1,
      "byteOffset": 263696,
      "componentType": 5126,
      "count": 24,
      "max": [
        0.999999463558197,
        1.0
      ],
      "min": [
        0.3158811628818512,
        0.0
      ],
      "type": "VEC2"
    },
    {
      "bufferView": 0,
      "byteOffset": 622296,
      "componentType": 5125,
      "count": 36,
      "type": "SCALAR"
    },
    {
      "bufferView": 2,
      "byteOffset": 791664,
      "componentType": 5126,
      "count": 96,
      "max": [
        21.7027587890625,
        1.0,
        1.0
      ],
      "min": [
        -1.059983253479004,
        -20.052202224731445,
        -1.0
      ],
      "type": "VEC3"
    },
    {
      "bufferView": 2,
      "byteOffset": 792816,
      "componentType": 5126,
      "count": 96,
      "max": [
        1.0,
        0.9995108246803284,
        1.0
      ],
      "min": [
        -1.0,
        -0.9995108246803284,
        -1.0
      ],
      "type": "VEC3"
    },
    {
      "bufferView": 1,
      "byteOffset": 263888,
      "componentType": 5126,
      "count": 96,
      "max": [
        1.0,
        1.0
      ],
      "min": [
        0.0,
        0.0
      ],
      "type": "VEC2"
    },
    {
      "bufferView": 0,
      "byteOffset": 622440,
      "componentType": 5125,
      "count": 144,
      "type": "SCALAR"
    },
    {
      "bufferView": 2,
      "byteOffset": 793968,
      "componentType": 5126,
      "count": 136,
      "max": [
        -0.21689409017562866,
        -0.519986093044281,
        -1.4784164428710938
      ],
      "min": [
        -1.7228949069976807,
        -2.025986909866333,
        -1.9086418151855469
      ],
      "type": "VEC3"
    },
    {
      "bufferView": 2,
      "byteOffset": 795600,
      "componentType": 5126,
      "count": 136,
      "max": [
        0.7278809547424316,
        0.7278809547424316,
        0.6857142448425293
      ],
      "min": [
        -0.7278809547424316,
        -0.7278809547424316,
        -0.6857142448425293
      ],
      "type": "VEC3"
    },
    {
      "bufferView": 1,
      "byteOffset": 264656,
      "componentType": 5126,
      "count": 136,
      "max": [
        0.9999999403953552,
        0.9999999403953552
      ],
      "min": [
        0.0,
        0.0
      ],
      "type": "VEC2"
    },
    {
      "bufferView": 0,
      "byteOffset": 623016,
      "componentType": 5125,
      "count": 372,
      "type": "SCALAR"
    },
    {
      "bufferView": 2,
      "byteOffset": 797232,
      "componentType": 5126,
      "count": 136,
      "max": [
        -0.21689409017562866,
        -0.519986093044281,
        -1.4784164428710938
      ],
      "min": [
        -1.7228949069976807,
        -2.025986909866333,
        -1.9086418151855469
      ],
      "type": "VEC3"
    },
    {
      "bufferView": 2,
      "byteOffset": 798864,
      "componentType": 5126,
      "count": 136,
      "max": [
        0.7278809547424316,
        0.7278809547424316,
        0.6857142448425293
      ],
      "min": [
        -0.7278809547424316,
        -0.7278809547424316,
        -0.6857142448425293
      ],
      "type": "VEC3"
    },
    {
      "bufferView": 1,
      "byteOffset": 265744,
      "componentType": 5126,
      "count": 136,
      "max": [
        0.9999999403953552,
        0.9999999403953552
      ],
      "min": [
        0.0,
        0.0
      ],
      "type": "VEC2"
    },
    {
      "bufferView": 0,
      "byteOffset": 624504,
      "componentType": 5125,
      "count": 372,
      "type": "SCALAR"
    },
    {
      "bufferView": 2,
      "byteOffset": 800496,
      "componentType": 5126,
      "count": 136,
      "max": [
        -0.21689409017562866,
        -0.519986093044281,
        -1.4784164428710938
      ],
      "min": [
        -1.7228949069976807,
        -2.025986909866333,
        -1.9086418151855469
      ],
      "type": "VEC3"
    },
    {
      "bufferView": 2,
      "byteOffset": 802128,
      "componentType": 5126,
      "count": 136,
      "max": [
        0.7278809547424316,
        0.7278809547424316,
        0.6857142448425293
      ],
      "min": [
        -0.7278809547424316,
        -0.7278809547424316,
        -0.6857142448425293
      ],
      "type": "VEC3"
    },
    {
      "bufferView": 1,
      "byteOffset": 266832,
      "componentType": 5126,
      "count": 136,
      "max": [
        0.9999999403953552,
        0.9999999403953552
      ],
      "min": [
        0.0,
        0.0
      ],
      "type": "VEC2"
    },
    {
      "bufferView": 0,
      "byteOffset": 625992,
      "componentType": 5125,
      "count": 372,
      "type": "SCALAR"
    },
    {
      "bufferView": 2,
      "byteOffset": 803760,
      "componentType": 5126,
      "count": 136,
      "max": [
        -0.21689409017562866,
        -0.519986093044281,
        -1.4784164428710938
      ],
      "min": [
        -1.7228949069976807,
        -2.025986909866333,
        -1.9086418151855469
      ],
      "type": "VEC3"
    },
    {
      "bufferView": 2,
      "byteOffset": 805392,
      "componentType": 5126,
      "count": 136,
      "max": [
        0.7278809547424316,
        0.7278809547424316,
        0.6857142448425293
      ],
      "min": [
        -0.7278809547424316,
        -0.7278809547424316,
        -0.6857142448425293
      ],
      "type": "VEC3"
    },
    {
      "bufferView": 1,
      "byteOffset": 267920,
      "componentType": 5126,
      "count": 136,
      "max": [
        0.9999999403953552,
        0.9999999403953552
      ],
      "min": [
        0.0,
        0.0
      ],
      "type": "VEC2"
    },
    {
      "bufferView": 0,
      "byteOffset": 627480,
      "componentType": 5125,
      "count": 372,
      "type": "SCALAR"
    },
    {
      "bufferView": 2,
      "byteOffset": 807024,
      "componentType": 5126,
      "count": 4013,
      "max": [
        0.9939957857131958,
        0.9939956665039063,
        0.9803531169891357
      ],
      "min": [
        -0.9939952492713928,
        -0.9939952492713928,
        7.549790126404332e-08
      ],
      "type": "VEC3"
    },
    {
      "bufferView": 2,
      "byteOffset": 855180,
      "componentType": 5126,
      "count": 4013,
      "max": [
        0.9952439069747925,
        0.9952439069747925,
        1.0
      ],
      "min": [
        -0.9952439069747925,
        -0.9952439069747925,
        0.09741554409265518
      ],
      "type": "VEC3"
    },
    {
      "bufferView": 1,
      "byteOffset": 269008,
      "componentType": 5126,
      "count": 4013,
      "max": [
        1.0,
        1.0
      ],
      "min": [
        0.0,
        0.0
      ],
      "type": "VEC2"
    },
    {
      "bufferView": 0,
      "byteOffset": 628968,
      "componentType": 5125,
      "count": 22272,
      "type": "SCALAR"
    },
    {
      "bufferView": 2,
      "byteOffset": 903336,
      "componentType": 5126,
      "count": 4013,
      "max": [
        0.9939957857131958,
        0.9939956665039063,
        0.9803531169891357
      ],
      "min": [
        -0.9939952492713928,
        -0.9939952492713928,
        7.549790126404332e-08
      ],
      "type": "VEC3"
    },
    {
      "bufferView": 2,
      "byteOffset": 951492,
      "componentType": 5126,
      "count": 4013,
      "max": [
        0.9952439069747925,
        0.9952439069747925,
        1.0
      ],
      "min": [
        -0.9952439069747925,
        -0.9952439069747925,
        0.09741554409265518
      ],
      "type": "VEC3"
    },
    {
      "bufferView": 1,
      "byteOffset": 301112,
      "componentType": 5126,
      "count": 4013,
      "max": [
        1.0,
        1.0
      ],
      "min": [
        0.0,
        0.0
      ],
      "type": "VEC2"
    },
    {
      "bufferView": 0,
      "byteOffset": 718056,
      "componentType": 5125,
      "count": 22272,
      "type": "SCALAR"
    },
    {
      "bufferView": 2,
      "byteOffset": 999648,
      "componentType": 5126,
      "count": 4013,
      "max": [
        0.9939957857131958,
        0.9939956665039063,
        0.9803531169891357
      ],
      "min": [
        -0.9939952492713928,
        -0.9939952492713928,
        7.549790126404332e-08
      ],
      "type": "VEC3"
    },
    {
      "bufferView": 2,
      "byteOffset": 1047804,
      "componentType": 5126,
      "count": 4013,
      "max": [
        0.9952439069747925,
        0.9952439069747925,
        1.0
      ],
      "min": [
        -0.9952439069747925,
        -0.9952439069747925,
        0.09741554409265518
      ],
      "type": "VEC3"
    },
    {
      "bufferView": 1,
      "byteOffset": 333216,
      "componentType": 5126,
      "count": 4013,
      "max": [
        1.0,
        1.0
      ],
      "min": [
        0.0,
        0.0
      ],
      "type": "VEC2"
    },
    {
      "bufferView": 0,
      "byteOffset": 807144,
      "componentType": 5125,
      "count": 22272,
      "type": "SCALAR"
    },
    {
      "bufferView": 2,
      "byteOffset": 1095960,
      "componentType": 5126,
      "count": 6838,
      "max": [
        1.0870200395584106,
        1.0870198011398315,
        0.9803531169891357
      ],
      "min": [
        -1.0870195627212524,
        -1.087019443511963,
        -0.008678493089973927
      ],
      "type": "VEC3"
    },
    {
      "bufferView": 2,
      "byteOffset": 1178016,
      "componentType": 5126,
      "count": 6838,
      "max": [
        0.9997180700302124,
        0.9997173547744751,
        1.0
      ],
      "min": [
        -0.9997180700302124,
        -0.9997180700302124,
        -0.9952229857444763
      ],
      "type": "VEC3"
    },
    {
      "bufferView": 1,
      "byteOffset": 365320,
      "componentType": 5126,
      "count": 6838,
      "max": [
        0.947435736656189,
        0.9841690063476563
      ],
      "min": [
        0.0,
        0.0
      ],
      "type": "VEC2"
    },
    {
      "bufferView": 0,
      "byteOffset": 896232,
      "componentType": 5125,
      "count": 28416,
      "type": "SCALAR"
    },
    {
      "bufferView": 2,
      "byteOffset": 1260072,
      "componentType": 5126,
      "count": 1305,
      "max": [
        1.085059404373169,
        1.085059404373169,
        0.19898459315299988
      ],
      "min": [
        -1.0850590467453003,
        -1.0850589275360107,
        0.024118643254041672
      ],
      "type": "VEC3"
    },
    {
      "bufferView": 2,
      "byteOffset": 1275732,
      "componentType": 5126,
      "count": 1305,
      "max": [
        0.9952439069747925,
        0.9952439069747925,
        0.9999421834945679
      ],
      "min": [
        -0.9952439069747925,
        -0.9952439069747925,
        0.09741554409265518
      ],
      "type": "VEC3"
    },
    {
      "bufferView": 1,
      "byteOffset": 420024,
      "componentType": 5126,
      "count": 1305,
      "max": [
        1.0,
        0.9997026920318604
      ],
      "min": [
        0.00028551710420288146,
        0.3074878454208374
      ],
      "type": "VEC2"
    },
    {
      "bufferView": 0,
      "byteOffset": 1009896,
      "componentType": 5125,
      "count": 6144,
      "type": "SCALAR"
    },
    {
      "bufferView": 2,
      "byteOffset": 1291392,
      "componentType": 5126,
      "count": 52,
      "max": [
        1.7360252141952515,
        1.733034372329712,
        -0.15551482141017914
      ],
      "min": [
        -1.0165363550186157,
        -1.467572808265686,
        -0.238456130027771
      ],
      "type": "VEC3"
    },
    {
      "bufferView": 2,
      "byteOffset": 1292016,
      "componentType": 5126,
      "count": 52,
      "max": [
        0.9992931485176086,
        0.9999246001243591,
        1.0
      ],
      "min": [
        -0.9994837641716003,
        -0.9999271035194397,
        -1.0
      ],
      "type": "VEC3"
    },
    {
      "bufferView": 1,
      "byteOffset": 430464,
      "componentType": 5126,
      "count": 52,
      "max": [
        1.0,
        1.0
      ],
      "min": [
        0.0,
        0.0
      ],
      "type": "VEC2"
    },
    {
      "bufferView": 0,
      "byteOffset": 1034472,
      "componentType": 5125,
      "count": 78,
      "type": "SCALAR"
    },
    {
      "bufferView": 2,
      "byteOffset": 1292640,
      "componentType": 5126,
      "count": 4,
      "max": [
        1.349210262298584,
        1.355992078781128,
        -0.15551482141017914
      ],
      "min": [
        -0.6319330930709839,
        -0.7351069450378418,
        -0.15551482141017914
      ],
      "type": "VEC3"
    },
    {
      "bufferView": 2,
      "byteOffset": 1292688,
      "componentType": 5126,
      "count": 4,
      "max": [
        -3.904163659029791e-09,
        0.0,
        1.0
      ],
      "min": [
        -3.904163659029791e-09,
        0.0,
        1.0
      ],
      "type": "VEC3"
    },
    {
      "bufferView": 1,
      "byteOffset": 430880,
      "componentType": 5126,
      "count": 4,
      "max": [
        0.4107956290245056,
        0.6304471492767334
      ],
      "min": [
        0.06724592298269272,
        0.09649422764778137
      ],
      "type": "VEC2"
    },
    {
      "bufferView": 0,
      "byteOffset": 1034784,
      "componentType": 5125,
      "count": 6,
      "type": "SCALAR"
    },
    {
      "bufferView": 2,
      "byteOffset": 1292736,
      "componentType": 5126,
      "count": 523,
      "max": [
        0.7373000383377075,
        5.778919219970703,
        -0.5492833256721497
      ],
      "min": [
        -4.694943904876709,
        -1.0946362018585205,
        -1.1819493770599365
      ],
      "type": "VEC3"
    },
    {
      "bufferView": 2,
      "byteOffset": 1299012,
      "componentType": 5126,
      "count": 523,
      "max": [
        1.0,
        0.99997878074646,
        1.0
      ],
      "min": [
        -1.0,
        -0.999963104724884,
        -1.0
      ],
      "type": "VEC3"
    },
    {
      "bufferView": 1,
      "byteOffset": 430912,
      "componentType": 5126,
      "count": 523,
      "max": [
        1.0,
        0.9999999403953552
      ],
      "min": [
        0.0,
        0.0
      ],
      "type": "VEC2"
    },
    {
      "bufferView": 0,
      "byteOffset": 1034808,
      "componentType": 5125,
      "count": 834,
      "type": "SCALAR"
    }
  ],
  "asset": {
    "extras": {
      "author": "pasqual (https://sketchfab.com/pasqual)",
      "license": "CC-BY-4.0 (http://creativecommons.org/licenses/by/4.0/)",
      "source": "https://sketchfab.com/3d-models/pokedex-3c14483817704bf6a68a9c2a3c74af63",
      "title": "Pokédex"
    },
    "generator": "Sketchfab-14.10.0",
    "version": "2.0"
  },
  "bufferViews": [
    {
      "buffer": 0,
      "byteLength": 1038144,
      "name": "floatBufferViews",
      "target": 34963
    },
    {
      "buffer": 0,
      "byteLength": 435096,
      "byteOffset": 1038144,
      "byteStride": 8,
      "name": "floatBufferViews",
      "target": 34962
    },
    {
      "buffer": 0,
      "byteLength": 1305288,
      "byteOffset": 1473240,
      "byteStride": 12,
      "name": "floatBufferViews",
      "target": 34962
    }
  ],
  "buffers": [
    {
      "byteLength": 2778528,
      "uri": "scene.bin"
    }
  ],
  "materials": [
    {
      "doubleSided": true,
      "name": "Amarillo",
      "pbrMetallicRoughness": {
        "baseColorFactor": [
          0.6400000000000001,
          0.470828,
          0.00118988,
          1.0
        ],
        "metallicFactor": 0.0,
        "roughnessFactor": 0.6
      }
    },
    {
      "doubleSided": true,
      "name": "Rojo_base",
      "pbrMetallicRoughness": {
        "baseColorFactor": [
          0.6620456000000001,
          0.003027023999999998,
          0.0061138880000000005,
          1.0
        ],
        "metallicFactor": 0.0,
        "roughnessFactor": 0.6
      }
    },
    {
      "doubleSided": true,
      "name": "azul",
      "pbrMetallicRoughness": {
        "baseColorFactor": [
          0.007776976000000004,
          0.11301039999999991,
          0.26973120000000006,
          1.0
        ],
        "metallicFactor": 0.0,
        "roughnessFactor": 0.6
      }
    },
    {
      "doubleSided": true,
      "name": "blanco",
      "pbrMetallicRoughness": {
        "baseColorFactor": [
          0.6400000000000001,
          0.6400000000000001,
          0.6400000000000001,
          1.0
        ],
        "metallicFactor": 0.0,
        "roughnessFactor": 0.6
      }
    },
    {
      "doubleSided": true,
      "name": "rojo_2",
      "pbrMetallicRoughness": {
        "baseColorFactor": [
          0.5596,
          0.00894143,
          0.00894143,
          1.0
        ],
        "metallicFactor": 0.0,
        "roughnessFactor": 0.6
      }
    },
    {
      "doubleSided": true,
      "name": "verde",
      "pbrMetallicRoughness": {
        "baseColorFactor": [
          0.0510205,
          0.252943,
          0.0705655,
          1.0
        ],
        "metallicFactor": 0.0,
        "roughnessFactor": 0.6
      }
    },
    {
      "doubleSided": true,
      "name": "pantalla",
      "pbrMetallicRoughness": {
        "baseColorFactor": [
          0.002476368,
          0.002476368,
          0.002476368,
          1.0
        ],
        "metallicFactor": 0.0,
        "roughnessFactor": 0.6
      }
    },
    {
      "doubleSided": true,
      "name": "negro",
      "pbrMetallicRoughness": {
        "baseColorFactor": [
          0.006460664000000001,
          0.006460664000000001,
          0.006460664000000001,
          1.0
        ],
        "metallicFactor": 0.0,
        "roughnessFactor": 0.6
      }
    }
  ],
  "meshes": [
    {
      "name": "Plane.006_Amarillo_0",
      "primitives": [
        {
          "attributes": {
            "NORMAL": 1,
            "POSITION": 0,
            "TEXCOORD_0": 2
          },
          "indices": 3,
          "material": 0,
          "mode": 4
        }
      ]
    },
    {
      "name": "Plane.004_Rojo base_0",
      "primitives": [
        {
          "attributes": {
            "NORMAL": 5,
            "POSITION": 4,
            "TEXCOORD_0": 6
          },
          "indices": 7,
          "material": 1,
          "mode": 4
        }
      ]
    },
    {
      "name": "Sphere.008_azul_0",
      "primitives": [
        {
          "attributes": {
            "NORMAL": 9,
            "POSITION": 8,
            "TEXCOORD_0": 10
          },
          "indices": 11,
          "material": 2,
          "mode": 4
        }
      ]
    },
    {
      "name": "Sphere.008_blanco_0",
      "primitives": [
        {
          "attributes": {
            "NORMAL": 13,
            "POSITION": 12,
            "TEXCOORD_0": 14
          },
          "indices": 15,
          "material": 3,
          "mode": 4
        }
      ]
    },
    {
      "name": "Sphere.007_rojo 2_0",
      "primitives": [
        {
          "attributes": {
            "NORMAL": 17,
            "POSITION": 16,
            "TEXCOORD_0": 18
          },
          "indices": 19,
          "material": 4,
          "mode": 4
        }
      ]
    },
    {
      "name": "Sphere.006_Amarillo_0",
      "primitives": [
        {
          "attributes": {
            "NORMAL": 21,
            "POSITION": 20,
            "TEXCOORD_0": 22
          },
          "indices": 23,
          "material": 0,
          "mode": 4
        }
      ]
    },
    {
      "name": "Sphere.005_verde_0",
      "primitives": [
        {
          "attributes": {
            "NORMAL": 25,
            "POSITION": 24,
            "TEXCOORD_0": 26
          },
          "indices": 27,
          "material": 5,
          "mode": 4
        }
      ]
    },
    {
      "name": "Cube.005_Rojo base_0",
      "primitives": [
        {
          "attributes": {
            "NORMAL": 29,
            "POSITION": 28,
            "TEXCOORD_0": 30
          },
          "indices": 31,
          "material": 1,
          "mode": 4
        }
      ]
    },
    {
      "name": "Cylinder.005_Rojo base_0",
      "primitives": [
        {
          "attributes": {
            "NORMAL": 33,
            "POSITION": 32,
            "TEXCOORD_0": 34
          },
          "indices": 35,
          "material": 1,
          "mode": 4
        }
      ]
    },
    {
      "name": "Plane.003_azul_0",
      "primitives": [
        {
          "attributes": {
            "NORMAL": 37,
            "POSITION": 36,
            "TEXCOORD_0": 38
          },
          "indices": 39,
          "material": 2,
          "mode": 4
        }
      ]
    },
    {
      "name": "Plane.003_blanco_0",
      "primitives": [
        {
          "attributes": {
            "NORMAL": 41,
            "POSITION": 40,
            "TEXCOORD_0": 42
          },
          "indices": 43,
          "material": 3,
          "mode": 4
        }
      ]
    },
    {
      "name": "Plane.005_pantalla_0",
      "primitives": [
        {
          "attributes": {
            "NORMAL": 45,
            "POSITION": 44,
            "TEXCOORD_0": 46
          },
          "indices": 47,
          "material": 6,
          "mode": 4
        }
      ]
    },
    {
      "name": "Cube.004_negro_0",
      "primitives": [
        {
          "attributes": {
            "NORMAL": 49,
            "POSITION": 48,
            "TEXCOORD_0": 50
          },
          "indices": 51,
          "material": 7,
          "mode": 4
        }
      ]
    },
    {
      "name": "Plane.002_negro_0",
      "primitives": [
        {
          "attributes": {
            "NORMAL": 53,
            "POSITION": 52,
            "TEXCOORD_0": 54
          },
          "indices": 55,
          "material": 7,
          "mode": 4
        }
      ]
    },
    {
      "name": "Sphere.004_Amarillo_0",
      "primitives": [
        {
          "attributes": {
            "NORMAL": 57,
            "POSITION": 56,
            "TEXCOORD_0": 58
          },
          "indices": 59,
          "material": 0,
          "mode": 4
        }
      ]
    },
    {
      "name": "Cylinder.004_Rojo base_0",
      "primitives": [
        {
          "attributes": {
            "NORMAL": 61,
            "POSITION": 60,
            "TEXCOORD_0": 62
          },
          "indices": 63,
          "material": 1,
          "mode": 4
        }
      ]
    },
    {
      "name": "Direcciones_negro_0",
      "primitives": [
        {
          "attributes": {
            "NORMAL": 65,
            "POSITION": 64,
            "TEXCOORD_0": 66
          },
          "indices": 67,
          "material": 7,
          "mode": 4
        }
      ]
    },
    {
      "name": "Plane.001_verde_0",
      "primitives": [
        {
          "attributes": {
            "NORMAL": 69,
            "POSITION": 68,
            "TEXCOORD_0": 70
          },
          "indices": 71,
          "material": 5,
          "mode": 4
        }
      ]
    },
    {
      "name": "Cube.002_rojo 2_0",
      "primitives": [
        {
          "attributes": {
            "NORMAL": 73,
            "POSITION": 72,
            "TEXCOORD_0": 74
          },
          "indices": 75,
          "material": 4,
          "mode": 4
        }
      ]
    },
    {
      "name": "Cube.002_azul_0",
      "primitives": [
        {
          "attributes": {
            "NORMAL": 77,
            "POSITION": 76,
            "TEXCOORD_0": 78
          },
          "indices": 79,
          "material": 2,
          "mode": 4
        }
      ]
    },
    {
      "name": "Cube.001_negro_0",
      "primitives": [
        {
          "attributes": {
            "NORMAL": 81,
            "POSITION": 80,
            "TEXCOORD_0": 82
          },
          "indices": 83,
          "material": 7,
          "mode": 4
        }
      ]
    },
    {
      "name": "Cylinder.003_Rojo base_0",
      "primitives": [
        {
          "attributes": {
            "NORMAL": 85,
            "POSITION": 84,
            "TEXCOORD_0": 86
          },
          "indices": 87,
          "material": 1,
          "mode": 4
        }
      ]
    },
    {
      "name": "Cylinder.002_Rojo base_0",
      "primitives": [
        {
          "attributes": {
            "NORMAL": 89,
            "POSITION": 88,
            "TEXCOORD_0": 90
          },
          "indices": 91,
          "material": 1,
          "mode": 4
        }
      ]
    },
    {
      "name": "Cylinder.001_Rojo base_0",
      "primitives": [
        {
          "attributes": {
            "NORMAL": 93,
            "POSITION": 92,
            "TEXCOORD_0": 94
          },
          "indices": 95,
          "material": 1,
          "mode": 4
        }
      ]
    },
    {
      "name": "Cylinder_negro_0",
      "primitives": [
        {
          "attributes": {
            "NORMAL": 97,
            "POSITION": 96,
            "TEXCOORD_0": 98
          },
          "indices": 99,
          "material": 7,
          "mode": 4
        }
      ]
    },
    {
      "name": "Sphere.003_verde_0",
      "primitives": [
        {
          "attributes": {
            "NORMAL": 101,
            "POSITION": 100,
            "TEXCOORD_0": 102
          },
          "indices": 103,
          "material": 5,
          "mode": 4
        }
      ]
    },
    {
      "name": "Sphere.002_Amarillo_0",
      "primitives": [
        {
          "attributes": {
            "NORMAL": 105,
            "POSITION": 104,
            "TEXCOORD_0": 106
          },
          "indices": 107,
          "material": 0,
          "mode": 4
        }
      ]
    },
    {
      "name": "Sphere.001_rojo 2_0",
      "primitives": [
        {
          "attributes": {
            "NORMAL": 109,
            "POSITION": 108,
            "TEXCOORD_0": 110
          },
          "indices": 111,
          "material": 4,
          "mode": 4
        }
      ]
    },
    {
      "name": "Sphere_azul_0",
      "primitives": [
        {
          "attributes": {
            "NORMAL": 113,
            "POSITION": 112,
            "TEXCOORD_0": 114
          },
          "indices": 115,
          "material": 2,
          "mode": 4
        }
      ]
    },
    {
      "name": "Sphere_blanco_0",
      "primitives": [
        {
          "attributes": {
            "NORMAL": 117,
            "POSITION": 116,
            "TEXCOORD_0": 118
          },
          "indices": 119,
          "material": 3,
          "mode": 4
        }
      ]
    },
    {
      "name": "Plane_blanco_0",
      "primitives": [
        {
          "attributes": {
            "NORMAL": 121,
            "POSITION": 120,
            "TEXCOORD_0": 122
          },
          "indices": 123,
          "material": 3,
          "mode": 4
        }
      ]
    },
    {
      "name": "Plane_pantalla_0",
      "primitives": [
        {
          "attributes": {
            "NORMAL": 125,
            "POSITION": 124,
            "TEXCOORD_0": 126
          },
          "indices": 127,
          "material": 6,
          "mode": 4
        }
      ]
    },
    {
      "name": "Base Pokedex 1_Rojo base_0",
      "primitives": [
        {
          "attributes": {
            "NORMAL": 129,
            "POSITION": 128,
            "TEXCOORD_0": 130
          },
          "indices": 131,
          "material": 1,
          "mode": 4
        }
      ]
    }
  ],
  "nodes": [
    {
      "children": [
        1
      ],
      "matrix": [
        1.0,
        0.0,
        0.0,
        0.0,
        0.0,
        2.220446049250313e-16,
        -1.0,
        0.0,
        0.0,
        1.0,
        2.220446049250313e-16,
        0.0,
        0.0,
        0.0,
        0.0,
        1.0
      ],
      "name": "Sketchfab_model"
    },
    {
      "children": [
        2
      ],
      "matrix": [
        1.0,
        0.0,
        0.0,
        0.0,
        0.0,
        0.0,
        1.0,
        0.0,
        0.0,
        -1.0,
        0.0,
        0.0,
        0.0,
        0.0,
        0.0,
        1.0
      ],
      "name": "Pokedex.fbx"
    },
    {
      "children": [
        3,
        5,
        7,
        10,
        12,
        14,
        16,
        18,
        20,
        23,
        25,
        27,
        29,
        31,
        33,
        35,
        37,
        40,
        42,
        44,
        46,
        48,
        50,
        52,
        54,
        56,
        59,
        62
      ],
      "name": "RootNode"
    },
    {
      "children": [
        4
      ],
      "matrix": [
        0.9845744129749872,
        1.3877787807814457e-17,
        -0.17496635480845846,
        0.0,
        -0.17496635480845796,
        7.549789982075339e-08,
        -0.9845744129749844,
        0.0,
        1.3209592295004846e-08,
        0.9999999999999972,
        7.433330040385044e-08,
        0.0,
        -5.009461402893066,
        4.857626914978027,
        -0.5621459484100342,
        1.0
      ],
      "name": "Plane.006"
    },
    {
      "mesh": 0,
      "name": "Plane.006_Amarillo_0"
    },
    {
      "children": [
        6
      ],
      "matrix": [
        0.06491480273449847,
        0.0,
        -0.03700156774347504,
        0.0,
        -0.037001567743475,
        -3.2661060485104206e-09,
        -0.0649148027344984,
        0.0,
        -1.6173897936995463e-09,
        0.07471978664398185,
        -2.8375159709495293e-09,
        0.0,
        -1.1036102771759033,
        1.7207083702087402,
        -0.36932840943336487,
        1.0
      ],
      "name": "Plane.004"
    },
    {
      "mesh": 1,
      "name": "Plane.004_Rojo base_0"
    },
    {
      "children": [
        8,
        9
      ],
      "matrix": [
        0.21358641518565324,
        1.3703619966757741e-17,
        -0.12378175506734092,
        0.0,
        -0.12378175506734078,
        -1.0790701711537422e-08,
        -0.21358641518565308,
        0.0,
        -5.410672544366664e-09,
        0.24686247110366802,
        -9.336159035179614e-09,
        0.0,
        -3.888173818588257,
        1.7101725339889526,
        -2.528160810470581,
        1.0
      ],
      "name": "Sphere.008"
    },
    {
      "mesh": 2,
      "name": "Sphere.008_azul_0"
    },
    {
      "mesh": 3,
      "name": "Sphere.008_blanco_0"
    },
    {
      "children": [
        11
      ],
      "matrix": [
        0.04693338870050542,
        3.011227770088027e-18,
        -0.027199754337055244,
        0.0,
        -0.027199754337054884,
        -8.837706717025233e-09,
        -0.04693338870050479,
        0.0,
        -4.431401845864216e-09,
        0.05424544960260319,
        -7.646418527542728e-09,
        0.0,
        -3.5174331665039063,
        1.7101725339889526,
        -2.887813091278076,
        1.0
      ],
      "name": "Sphere.007"
    },
    {
      "mesh": 4,
      "name": "Sphere.007_rojo 2_0"
    },
    {
      "children": [
        13
      ],
      "matrix": [
        0.04693338870050542,
        3.011227770088027e-18,
        -0.027199754337055244,
        0.0,
        -0.027199754337054884,
        -8.837706717025233e-09,
        -0.04693338870050479,
        0.0,
        -4.431401845864216e-09,
        0.05424544960260319,
        -7.646418527542728e-09,
        0.0,
        -3.313180923461914,
        1.7101725339889526,
        -2.931123971939087,
        1.0
      ],
      "name": "Sphere.006"
    },
    {
      "mesh": 5,
      "name": "Sphere.006_Amarillo_0"
    },
    {
      "children": [
        15
      ],
      "matrix": [
        0.04693338870050542,
        3.011227770088027e-18,
        -0.027199754337055244,
        0.0,
        -0.027199754337054884,
        -8.837706717025233e-09,
        -0.04693338870050479,
        0.0,
        -4.431401845864216e-09,
        0.05424544960260319,
        -7.646418527542728e-09,
        0.0,
        -3.097754955291748,
        1.7101725339889526,
        -2.976740837097168,
        1.0
      ],
      "name": "Sphere.005"
    },
    {
      "mesh": 6,
      "name": "Sphere.005_verde_0"
    },
    {
      "children": [
        17
      ],
      "matrix": [
        0.10771426438110895,
        0.0,
        0.7096286455965208,
        0.0,
        0.7096286455965073,
        1.3975245672319883e-07,
        -0.10771426438110684,
        0.0,
        -1.3816981011374882e-07,
        0.7177571058273179,
        2.097274340264048e-08,
        0.0,
        -3.2161619663238525,
        2.108579635620117,
        0.2601775825023651,
        1.0
      ],
      "name": "Cube.005"
    },
    {
      "mesh": 7,
      "name": "Cube.005_Rojo base_0"
    },
    {
      "children": [
        19
      ],
      "matrix": [
        1.4665614561884947e-08,
        -0.19425195455551092,
        -1.1555974482449474e-09,
        0.0,
        -0.19231691291892247,
        -1.4682226926401888e-08,
        0.027349973762560053,
        0.0,
        -0.027349973762560063,
        -9.207796132406291e-10,
        -0.19231691291892303,
        0.0,
        -1.6949461698532104,
        1.3140521049499512,
        -1.3763954639434814,
        1.0
      ],
      "name": "Cylinder.005"
    },
    {
      "mesh": 8,
      "name": "Cylinder.005_Rojo base_0"
    },
    {
      "children": [
        21,
        22
      ],
      "matrix": [
        0.19468503076319754,
        0.0,
        0.07231473823611351,
        0.0,
        0.07231473823611254,
        -3.3835641375336665e-08,
        -0.19468503076319496,
        0.0,
        1.1781566294013854e-08,
        0.20768168568610867,
        -3.171821749189923e-08,
        0.0,
        3.3034908771514893,
        2.162235736846924,
        0.18406572937965393,
        1.0
      ],
      "name": "Plane.003"
    },
    {
      "mesh": 9,
      "name": "Plane.003_azul_0"
    },
    {
      "mesh": 10,
      "name": "Plane.003_blanco_0"
    },
    {
      "children": [
        24
      ],
      "matrix": [
        0.19468503076319754,
        0.0,
        0.07231473823611351,
        0.0,
        0.07231473823611254,
        -3.3835641375336665e-08,
        -0.19468503076319496,
        0.0,
        1.1781566294013854e-08,
        0.20768168568610867,
        -3.171821749189923e-08,
        0.0,
        3.4938857555389404,
        2.172940254211426,
        -0.3564661145210266,
        1.0
      ],
      "name": "Plane.005"
    },
    {
      "mesh": 11,
      "name": "Plane.005_pantalla_0"
    },
    {
      "children": [
        26
      ],
      "matrix": [
        0.00768734449567775,
        4.489549141013583e-19,
        0.002512938792209662,
        0.0,
        0.0025129387922096596,
        -3.535225434124546e-10,
        -0.007687344495677743,
        0.0,
        1.0984404723558196e-10,
        0.008087652735412114,
        -3.360245148604362e-10,
        0.0,
        4.292147159576416,
        1.4239468574523926,
        0.4509858191013336,
        1.0
      ],
      "name": "Cube.004"
    },
    {
      "mesh": 12,
      "name": "Cube.004_negro_0"
    },
    {
      "children": [
        28
      ],
      "matrix": [
        0.29540179412237255,
        0.0,
        -0.003161322775762174,
        0.0,
        -0.0031613227757621323,
        -4.812981685949039e-08,
        -0.29540179412236867,
        0.0,
        -5.15044958541464e-10,
        0.29541876912116616,
        -4.812707074512305e-08,
        0.0,
        2.4161534309387207,
        1.4176584482192993,
        0.9823371171951294,
        1.0
      ],
      "name": "Plane.002"
    },
    {
      "mesh": 13,
      "name": "Plane.002_negro_0"
    },
    {
      "children": [
        30
      ],
      "matrix": [
        0.11396147411673638,
        0.0,
        -0.001219589761649944,
        0.0,
        -0.001219589761649928,
        -1.8567743958941202e-08,
        -0.11396147411673486,
        0.0,
        -1.9869636665303025e-10,
        0.11396798491477816,
        -1.8566678376562433e-08,
        0.0,
        3.6008760929107666,
        1.388520359992981,
        1.123793363571167,
        1.0
      ],
      "name": "Sphere.004"
    },
    {
      "mesh": 14,
      "name": "Sphere.004_Amarillo_0"
    },
    {
      "children": [
        32
      ],
      "matrix": [
        -8.49102295609452e-09,
        -0.19425195455551128,
        3.0382992359664664e-09,
        0.0,
        -0.1808756610585001,
        6.798370436087804e-09,
        -0.0708365519014516,
        0.0,
        0.07083655190145142,
        -5.925444469725111e-09,
        -0.1808756610585002,
        0.0,
        1.9999949932098389,
        1.0943979024887085,
        -0.4434279501438141,
        1.0
      ],
      "name": "Cylinder.004"
    },
    {
      "mesh": 15,
      "name": "Cylinder.004_Rojo base_0"
    },
    {
      "children": [
        34
      ],
      "matrix": [
        0.07752838332166025,
        -4.6000824945344766e-18,
        0.029264460876889664,
        0.0,
        0.029264460876889636,
        -3.622263180633929e-09,
        -0.07752838332166016,
        0.0,
        1.279190148856889e-09,
        0.08286771178245536,
        -3.3888730904999124e-09,
        0.0,
        0.8648331761360168,
        0.07548411935567856,
        0.4821085035800934,
        1.0
      ],
      "name": "Direcciones"
    },
    {
      "mesh": 16,
      "name": "Direcciones_negro_0"
    },
    {
      "children": [
        36
      ],
      "matrix": [
        0.29540179412237255,
        0.0,
        -0.003161322775762174,
        0.0,
        -0.0031613227757621323,
        -4.812981685949039e-08,
        -0.29540179412236867,
        0.0,
        -5.15044958541464e-10,
        0.29541876912116616,
        -4.812707074512305e-08,
        0.0,
        0.2250421643257141,
        1.4176584482192993,
        0.17340806126594543,
        1.0
      ],
      "name": "Plane.001"
    },
    {
      "mesh": 17,
      "name": "Plane.001_verde_0"
    },
    {
      "children": [
        38,
        39
      ],
      "matrix": [
        0.00768734449567775,
        4.489549141013583e-19,
        0.002512938792209662,
        0.0,
        0.0025129387922096596,
        -3.535225434124546e-10,
        -0.007687344495677743,
        0.0,
        1.0984404723558196e-10,
        0.008087652735412114,
        -3.360245148604362e-10,
        0.0,
        1.0482728481292725,
        1.4239468574523926,
        -0.23879560828208923,
        1.0
      ],
      "name": "Cube.002"
    },
    {
      "mesh": 18,
      "name": "Cube.002_rojo 2_0"
    },
    {
      "mesh": 19,
      "name": "Cube.002_azul_0"
    },
    {
      "children": [
        41
      ],
      "matrix": [
        0.00768734449567775,
        4.489549141013583e-19,
        0.002512938792209662,
        0.0,
        0.0025129387922096596,
        -3.535225434124546e-10,
        -0.007687344495677743,
        0.0,
        1.0984404723558196e-10,
        0.008087652735412114,
        -3.360245148604362e-10,
        0.0,
        1.0396418571472168,
        1.4574452638626099,
        -0.21429237723350525,
        1.0
      ],
      "name": "Cube.001"
    },
    {
      "mesh": 20,
      "name": "Cube.001_negro_0"
    },
    {
      "children": [
        43
      ],
      "matrix": [
        0.048115798833080654,
        4.1736192675232887e-20,
        -0.0005149243293424154,
        0.0,
        -0.0005149243293424085,
        -7.839507518105704e-09,
        -0.048115798833080016,
        0.0,
        -8.389181511290938e-11,
        0.04811855033039983,
        -7.839058035456402e-09,
        0.0,
        1.1318492889404297,
        1.5411301851272583,
        -1.4803462028503418,
        1.0
      ],
      "name": "Cylinder.003"
    },
    {
      "mesh": 21,
      "name": "Cylinder.003_Rojo base_0"
    },
    {
      "children": [
        45
      ],
      "matrix": [
        0.048115798833080654,
        4.1736192675232887e-20,
        -0.0005149243293424154,
        0.0,
        -0.0005149243293424085,
        -7.839507518105704e-09,
        -0.048115798833080016,
        0.0,
        -8.389181511290938e-11,
        0.04811855033039983,
        -7.839058035456402e-09,
        0.0,
        0.8984184861183167,
        1.5411301851272583,
        -1.5645540952682495,
        1.0
      ],
      "name": "Cylinder.002"
    },
    {
      "mesh": 22,
      "name": "Cylinder.002_Rojo base_0"
    },
    {
      "children": [
        47
      ],
      "matrix": [
        0.07194446073661738,
        0.0,
        -0.0007699332463173101,
        0.0,
        -0.0007699332463172999,
        -1.172191160719136e-08,
        -0.07194446073661642,
        0.0,
        -1.25438034640383e-10,
        0.07194857299327756,
        -1.1721239218344659e-08,
        0.0,
        0.021333515644073486,
        1.578141689300537,
        -0.6196375489234924,
        1.0
      ],
      "name": "Cylinder.001"
    },
    {
      "mesh": 23,
      "name": "Cylinder.001_Rojo base_0"
    },
    {
      "children": [
        49
      ],
      "matrix": [
        0.18894925570622104,
        0.0,
        -0.002022091759169654,
        0.0,
        -0.002022091759169627,
        -3.0785503900541096e-08,
        -0.1889492557062185,
        0.0,
        -3.2944058963218493e-10,
        0.18896009027957664,
        -3.078374356491912e-08,
        0.0,
        -0.29180485010147095,
        1.7542935609817505,
        -0.4123601019382477,
        1.0
      ],
      "name": "Cylinder"
    },
    {
      "mesh": 24,
      "name": "Cylinder_negro_0"
    },
    {
      "children": [
        51
      ],
      "matrix": [
        0.05424233611017248,
        0.0,
        -0.000580489086535624,
        0.0,
        -0.0005804890865356164,
        -8.837704301362836e-09,
        -0.054242336110171756,
        0.0,
        -9.457368947857705e-11,
        0.05424544960260319,
        -8.837199472436776e-09,
        0.0,
        1.5198025703430176,
        1.5760177373886108,
        -2.543344020843506,
        1.0
      ],
      "name": "Sphere.003"
    },
    {
      "mesh": 25,
      "name": "Sphere.003_verde_0"
    },
    {
      "children": [
        53
      ],
      "matrix": [
        0.05424233611017248,
        0.0,
        -0.000580489086535624,
        0.0,
        -0.0005804890865356164,
        -8.837704301362836e-09,
        -0.054242336110171756,
        0.0,
        -9.457368947857705e-11,
        0.05424544960260319,
        -8.837199472436776e-09,
        0.0,
        1.3098201751708984,
        1.5760177373886108,
        -2.609651565551758,
        1.0
      ],
      "name": "Sphere.002"
    },
    {
      "mesh": 26,
      "name": "Sphere.002_Amarillo_0"
    },
    {
      "children": [
        55
      ],
      "matrix": [
        0.05424233611017248,
        0.0,
        -0.000580489086535624,
        0.0,
        -0.0005804890865356164,
        -8.837704301362836e-09,
        -0.054242336110171756,
        0.0,
        -9.457368947857705e-11,
        0.05424544960260319,
        -8.837199472436776e-09,
        0.0,
        1.1106998920440674,
        1.5760177373886108,
        -2.6724672317504883,
        1.0
      ],
      "name": "Sphere.001"
    },
    {
      "mesh": 27,
      "name": "Sphere.001_rojo 2_0"
    },
    {
      "children": [
        57,
        58
      ],
      "matrix": [
        0.24684829129259145,
        0.0,
        -0.0026417142378558863,
        0.0,
        -0.0026417142378558516,
        -4.021899422543406e-08,
        -0.2468482912925882,
        0.0,
        -4.303899565124848e-10,
        0.24686247110366494,
        -4.02166986426278e-08,
        0.0,
        0.6109659075737,
        1.5760177373886108,
        -2.5418365001678467,
        1.0
      ],
      "name": "Sphere"
    },
    {
      "mesh": 28,
      "name": "Sphere_azul_0"
    },
    {
      "mesh": 29,
      "name": "Sphere_blanco_0"
    },
    {
      "children": [
        60,
        61
      ],
      "matrix": [
        -0.19583249381024923,
        6.108616988885292e-17,
        0.5141852924884867,
        0.0,
        0.5141852924884769,
        1.0713087524898431e-07,
        0.19583249381024553,
        0.0,
        -1.0011558379299367e-07,
        0.5502153635024919,
        -3.812999858339993e-08,
        0.0,
        0.7308281064033508,
        1.5409454107284546,
        -1.1152892112731934,
        1.0
      ],
      "name": "Plane"
    },
    {
      "mesh": 30,
      "name": "Plane_blanco_0"
    },
    {
      "mesh": 31,
      "name": "Plane_pantalla_0"
    },
    {
      "children": [
        63
      ],
      "matrix": [
        -0.25546393018956626,
        7.968704649778186e-17,
        0.6707558746203626,
        0.0,
        0.6707558746203498,
        1.397524685677128e-07,
        0.25546393018956143,
        0.0,
        -1.3060099088117524e-07,
        0.7177571058273179,
        -4.9740663826986924e-08,
        0.0,
        -0.12966448068618774,
        1.9744248390197754,
        0.23260250687599182,
        1.0
      ],
      "name": "Base Pokedex 1"
    },
    {
      "mesh": 32,
      "name": "Base Pokedex 1_Rojo base_0"
    }
  ],
  "scene": 0,
  "scenes": [
    {
      "name": "Sketchfab_Scene",
      "nodes": [
        0
      ]
    }
  ]
}
